M48
;DRILL file {Pcbnew (2012-01-19 BZR 3256)-stable} date 9/16/2014 16:46:21
;FORMAT={-:-/ absolute / metric / decimal}
FMAT,2
METRIC,TZ
T1C0.500
T2C0.813
T3C0.998
T4C1.016
%
G90
G05
M71
T1
X36.830Y7.620
T2
X11.430Y17.780
X11.430Y7.620
X15.240Y17.780
X15.240Y7.620
X16.510Y22.352
X19.050Y22.352
X19.050Y15.240
X19.050Y10.160
X25.400Y22.606
X25.400Y17.526
X25.400Y12.446
X25.400Y7.366
X31.750Y22.606
X31.750Y17.526
X31.750Y12.446
X31.750Y7.366
T3
X1.270Y24.130
X1.270Y21.590
X1.270Y19.050
X1.270Y16.510
X1.270Y13.970
X1.270Y11.430
X1.270Y8.890
X1.270Y6.350
X1.270Y3.810
X1.270Y1.270
X46.990Y24.130
X46.990Y21.590
X46.990Y19.050
X46.990Y16.510
X46.990Y13.970
X46.990Y11.430
X46.990Y8.890
X46.990Y6.350
X46.990Y3.810
X46.990Y1.270
T4
X3.810Y21.590
X3.810Y19.050
X3.810Y13.970
X3.810Y6.350
X3.810Y3.810
X6.350Y1.270
X7.620Y24.130
X8.890Y1.270
X10.160Y24.130
X11.430Y1.270
X12.700Y24.130
X15.240Y1.270
X17.780Y1.270
X20.320Y1.270
X24.130Y1.270
X26.670Y1.270
X30.480Y1.270
X33.020Y1.270
X36.830Y24.130
X36.830Y1.270
X39.370Y24.130
X39.370Y1.270
X41.910Y24.130
X41.910Y1.270
X44.450Y24.130
T0
M30
