G04 (created by PCBNEW-RS274X (2011-nov-30)-testing) date Wed 18 Jul 2012 12:41:25 AM CEST*
%MOIN*%
G04 Gerber Fmt 3.4, Leading zero omitted, Abs format*
%FSLAX34Y34*%
G01*
G70*
G90*
G04 APERTURE LIST*
%ADD10C,0.006*%
%ADD11C,0.0059*%
%ADD12C,0.015*%
%ADD13C,0.0097*%
%ADD14C,0.012*%
%ADD15C,0.0077*%
%ADD16C,0.008*%
%ADD17C,0.003*%
%ADD18C,0.01*%
%ADD19C,0.096*%
%ADD20C,0.09*%
%ADD21R,0.09X0.09*%
%ADD22C,0.085*%
%ADD23O,0.1487X0.0892*%
%ADD24O,0.1487X0.09*%
G04 APERTURE END LIST*
G54D10*
G54D11*
X15022Y4215D02*
X15041Y4196D01*
X15059Y4140D01*
X15059Y4102D01*
X15041Y4046D01*
X15003Y4009D01*
X14966Y3990D01*
X14891Y3971D01*
X14834Y3971D01*
X14759Y3990D01*
X14722Y4009D01*
X14684Y4046D01*
X14665Y4102D01*
X14665Y4140D01*
X14684Y4196D01*
X14703Y4215D01*
X15022Y4609D02*
X15041Y4590D01*
X15059Y4534D01*
X15059Y4496D01*
X15041Y4440D01*
X15003Y4403D01*
X14966Y4384D01*
X14891Y4365D01*
X14834Y4365D01*
X14759Y4384D01*
X14722Y4403D01*
X14684Y4440D01*
X14665Y4496D01*
X14665Y4534D01*
X14684Y4590D01*
X14703Y4609D01*
X14909Y4778D02*
X14909Y5078D01*
X14853Y5397D02*
X14872Y5453D01*
X14891Y5472D01*
X14928Y5491D01*
X14984Y5491D01*
X15022Y5472D01*
X15041Y5453D01*
X15059Y5416D01*
X15059Y5266D01*
X14665Y5266D01*
X14665Y5397D01*
X14684Y5435D01*
X14703Y5453D01*
X14741Y5472D01*
X14778Y5472D01*
X14816Y5453D01*
X14834Y5435D01*
X14853Y5397D01*
X14853Y5266D01*
X14872Y5735D02*
X15059Y5735D01*
X14665Y5604D02*
X14872Y5735D01*
X14665Y5866D01*
X14909Y5998D02*
X14909Y6298D01*
X15041Y6467D02*
X15059Y6523D01*
X15059Y6617D01*
X15041Y6655D01*
X15022Y6673D01*
X14984Y6692D01*
X14947Y6692D01*
X14909Y6673D01*
X14891Y6655D01*
X14872Y6617D01*
X14853Y6542D01*
X14834Y6505D01*
X14816Y6486D01*
X14778Y6467D01*
X14741Y6467D01*
X14703Y6486D01*
X14684Y6505D01*
X14665Y6542D01*
X14665Y6636D01*
X14684Y6692D01*
X14947Y6842D02*
X14947Y7030D01*
X15059Y6805D02*
X14665Y6936D01*
X15059Y7067D01*
G54D12*
X13500Y1400D02*
X13600Y1400D01*
X13500Y1900D02*
X13500Y1400D01*
X11500Y1900D02*
X11500Y1400D01*
X11000Y1500D02*
X11000Y1900D01*
X9000Y1500D02*
X9000Y1900D01*
G54D11*
X16160Y7840D02*
X16141Y7803D01*
X16141Y7728D01*
X16160Y7690D01*
X16198Y7672D01*
X16216Y7672D01*
X16254Y7690D01*
X16272Y7728D01*
X16272Y7784D01*
X16291Y7821D01*
X16329Y7840D01*
X16347Y7840D01*
X16385Y7821D01*
X16403Y7784D01*
X16403Y7728D01*
X16385Y7690D01*
X16141Y7335D02*
X16534Y7335D01*
X16160Y7335D02*
X16141Y7372D01*
X16141Y7447D01*
X16160Y7485D01*
X16179Y7503D01*
X16216Y7522D01*
X16329Y7522D01*
X16366Y7503D01*
X16385Y7485D01*
X16403Y7447D01*
X16403Y7372D01*
X16385Y7335D01*
X16141Y6979D02*
X16347Y6979D01*
X16385Y6998D01*
X16403Y7035D01*
X16403Y7110D01*
X16385Y7147D01*
X16160Y6979D02*
X16141Y7016D01*
X16141Y7110D01*
X16160Y7147D01*
X16198Y7166D01*
X16235Y7166D01*
X16272Y7147D01*
X16291Y7110D01*
X16291Y7016D01*
X16310Y6979D01*
X15460Y7754D02*
X15441Y7717D01*
X15441Y7642D01*
X15460Y7605D01*
X15497Y7586D01*
X15516Y7586D01*
X15553Y7605D01*
X15572Y7642D01*
X15572Y7698D01*
X15591Y7736D01*
X15628Y7754D01*
X15647Y7754D01*
X15684Y7736D01*
X15703Y7698D01*
X15703Y7642D01*
X15684Y7605D01*
X15460Y7251D02*
X15441Y7288D01*
X15441Y7363D01*
X15460Y7400D01*
X15479Y7419D01*
X15516Y7437D01*
X15628Y7437D01*
X15665Y7419D01*
X15684Y7400D01*
X15703Y7363D01*
X15703Y7288D01*
X15684Y7251D01*
X15441Y7027D02*
X15460Y7064D01*
X15497Y7083D01*
X15833Y7083D01*
X9925Y3441D02*
X9701Y3441D01*
X9813Y3441D02*
X9813Y3834D01*
X9776Y3778D01*
X9738Y3741D01*
X9701Y3722D01*
X10075Y3797D02*
X10094Y3816D01*
X10131Y3834D01*
X10225Y3834D01*
X10262Y3816D01*
X10281Y3797D01*
X10299Y3760D01*
X10299Y3722D01*
X10281Y3666D01*
X10056Y3441D01*
X10299Y3441D01*
X12425Y3441D02*
X12201Y3441D01*
X12313Y3441D02*
X12313Y3834D01*
X12276Y3778D01*
X12238Y3741D01*
X12201Y3722D01*
X12799Y3441D02*
X12575Y3441D01*
X12687Y3441D02*
X12687Y3834D01*
X12650Y3778D01*
X12612Y3741D01*
X12575Y3722D01*
G54D12*
X2000Y200D02*
X2000Y1000D01*
X1000Y200D02*
X2000Y200D01*
X1000Y1000D02*
X1000Y200D01*
X2000Y3800D02*
X2000Y3000D01*
X1000Y3800D02*
X2000Y3800D01*
X1000Y3000D02*
X1000Y3800D01*
X5400Y7300D02*
X5400Y2400D01*
X5700Y7600D02*
X8500Y7600D01*
X5400Y7300D02*
X5700Y7600D01*
X8500Y2000D02*
X8400Y2000D01*
X8500Y2400D02*
X8500Y2000D01*
X8500Y7500D02*
X8500Y2400D01*
X5500Y2400D02*
X8500Y2400D01*
X5200Y7500D02*
X5100Y7500D01*
X5700Y8000D02*
X5200Y7500D01*
X5100Y7500D02*
X5100Y7400D01*
X3100Y7500D02*
X5100Y7500D01*
X3100Y2400D02*
X3100Y7500D01*
X5100Y2400D02*
X3100Y2400D01*
X5100Y7500D02*
X5100Y2400D01*
G54D11*
X15697Y4040D02*
X15959Y4133D01*
X15697Y4227D01*
X15567Y4451D02*
X15567Y4488D01*
X15585Y4526D01*
X15604Y4544D01*
X15641Y4563D01*
X15716Y4582D01*
X15809Y4582D01*
X15884Y4563D01*
X15921Y4544D01*
X15940Y4526D01*
X15959Y4488D01*
X15959Y4451D01*
X15940Y4414D01*
X15921Y4395D01*
X15884Y4376D01*
X15809Y4358D01*
X15716Y4358D01*
X15641Y4376D01*
X15604Y4395D01*
X15585Y4414D01*
X15567Y4451D01*
X15921Y4749D02*
X15940Y4768D01*
X15959Y4749D01*
X15940Y4731D01*
X15921Y4749D01*
X15959Y4749D01*
X15604Y4918D02*
X15585Y4936D01*
X15567Y4974D01*
X15567Y5067D01*
X15585Y5104D01*
X15604Y5123D01*
X15641Y5142D01*
X15679Y5142D01*
X15735Y5123D01*
X15959Y4899D01*
X15959Y5142D01*
X6959Y3837D02*
X6771Y3706D01*
X6959Y3613D02*
X6566Y3613D01*
X6566Y3762D01*
X6584Y3800D01*
X6603Y3818D01*
X6640Y3837D01*
X6697Y3837D01*
X6734Y3818D01*
X6753Y3800D01*
X6771Y3762D01*
X6771Y3613D01*
X6547Y4286D02*
X7052Y3949D01*
X6921Y4642D02*
X6940Y4623D01*
X6959Y4567D01*
X6959Y4530D01*
X6940Y4474D01*
X6902Y4436D01*
X6865Y4418D01*
X6790Y4399D01*
X6734Y4399D01*
X6659Y4418D01*
X6622Y4436D01*
X6584Y4474D01*
X6566Y4530D01*
X6566Y4567D01*
X6584Y4623D01*
X6603Y4642D01*
X6809Y5110D02*
X6809Y5409D01*
X6959Y5896D02*
X6566Y5896D01*
X6959Y6307D02*
X6771Y6176D01*
X6959Y6083D02*
X6566Y6083D01*
X6566Y6232D01*
X6584Y6270D01*
X6603Y6288D01*
X6640Y6307D01*
X6697Y6307D01*
X6734Y6288D01*
X6753Y6270D01*
X6771Y6232D01*
X6771Y6083D01*
X3759Y4445D02*
X3571Y4314D01*
X3759Y4221D02*
X3366Y4221D01*
X3366Y4370D01*
X3384Y4408D01*
X3403Y4426D01*
X3440Y4445D01*
X3497Y4445D01*
X3534Y4426D01*
X3553Y4408D01*
X3571Y4370D01*
X3571Y4221D01*
X3609Y4614D02*
X3609Y4913D01*
X3759Y5288D02*
X3759Y5101D01*
X3366Y5101D01*
X3553Y5419D02*
X3553Y5550D01*
X3759Y5606D02*
X3759Y5419D01*
X3366Y5419D01*
X3366Y5606D01*
X3759Y5775D02*
X3366Y5775D01*
X3366Y5868D01*
X3384Y5924D01*
X3422Y5962D01*
X3459Y5980D01*
X3534Y5999D01*
X3590Y5999D01*
X3665Y5980D01*
X3702Y5962D01*
X3740Y5924D01*
X3759Y5868D01*
X3759Y5775D01*
G54D12*
X1000Y9700D02*
X1000Y9000D01*
X2000Y9700D02*
X1000Y9700D01*
X2000Y6300D02*
X2000Y9700D01*
X1000Y6300D02*
X2000Y6300D01*
X1000Y7000D02*
X1000Y6300D01*
X2600Y5000D02*
X2000Y5000D01*
X2600Y6000D02*
X2600Y5000D01*
X2000Y6000D02*
X2600Y6000D01*
X2600Y2000D02*
X2000Y2000D01*
X1000Y4200D02*
X1000Y4400D01*
X8800Y10000D02*
X8900Y10000D01*
X8800Y8000D02*
X8800Y10000D01*
X5700Y8000D02*
X8800Y8000D01*
X5700Y10000D02*
X5700Y8000D01*
G54D11*
X8659Y8411D02*
X8659Y8224D01*
X8266Y8224D01*
X8453Y8542D02*
X8453Y8673D01*
X8659Y8729D02*
X8659Y8542D01*
X8266Y8542D01*
X8266Y8729D01*
X8659Y8898D02*
X8266Y8898D01*
X8266Y8991D01*
X8284Y9047D01*
X8322Y9085D01*
X8359Y9103D01*
X8434Y9122D01*
X8490Y9122D01*
X8565Y9103D01*
X8602Y9085D01*
X8640Y9047D01*
X8659Y8991D01*
X8659Y8898D01*
X8266Y9758D02*
X8266Y9683D01*
X8284Y9646D01*
X8303Y9627D01*
X8359Y9590D01*
X8434Y9571D01*
X8584Y9571D01*
X8621Y9590D01*
X8640Y9608D01*
X8659Y9646D01*
X8659Y9721D01*
X8640Y9758D01*
X8621Y9777D01*
X8584Y9795D01*
X8490Y9795D01*
X8453Y9777D01*
X8434Y9758D01*
X8415Y9721D01*
X8415Y9646D01*
X8434Y9608D01*
X8453Y9590D01*
X8490Y9571D01*
G54D12*
X15250Y6750D02*
X15250Y8000D01*
X16750Y6750D02*
X15250Y6750D01*
X16750Y8000D02*
X16750Y6750D01*
G54D11*
X17351Y8591D02*
X17650Y8591D01*
G54D12*
X18000Y8000D02*
X18000Y9000D01*
X14000Y8000D02*
X18000Y8000D01*
X14000Y9000D02*
X14000Y8000D01*
X17000Y2000D02*
X17000Y1000D01*
X14000Y2000D02*
X17000Y2000D01*
X14000Y1000D02*
X14000Y2000D01*
X13500Y1500D02*
X13500Y1000D01*
X11500Y1500D02*
X11500Y1000D01*
X11000Y1500D02*
X11000Y1000D01*
X9000Y1000D02*
X9000Y1500D01*
X8500Y2000D02*
X8500Y1000D01*
X5500Y2000D02*
X8500Y2000D01*
X5500Y1000D02*
X5500Y2000D01*
X5000Y2000D02*
X5000Y1000D01*
X2000Y2000D02*
X5000Y2000D01*
X2000Y1000D02*
X2000Y2000D01*
X5500Y8000D02*
X5500Y9000D01*
X2500Y8000D02*
X5500Y8000D01*
X2500Y9000D02*
X2500Y8000D01*
G54D11*
X1341Y774D02*
X1341Y699D01*
X1360Y662D01*
X1379Y643D01*
X1435Y606D01*
X1509Y587D01*
X1659Y587D01*
X1696Y606D01*
X1715Y625D01*
X1733Y662D01*
X1733Y737D01*
X1715Y774D01*
X1696Y793D01*
X1659Y811D01*
X1565Y811D01*
X1528Y793D01*
X1509Y774D01*
X1491Y737D01*
X1491Y662D01*
X1509Y625D01*
X1528Y606D01*
X1565Y587D01*
X1565Y3437D02*
X1584Y3474D01*
X1603Y3493D01*
X1640Y3511D01*
X1659Y3511D01*
X1696Y3493D01*
X1715Y3474D01*
X1733Y3437D01*
X1733Y3362D01*
X1715Y3325D01*
X1696Y3306D01*
X1659Y3287D01*
X1640Y3287D01*
X1603Y3306D01*
X1584Y3325D01*
X1565Y3362D01*
X1565Y3437D01*
X1547Y3474D01*
X1528Y3493D01*
X1491Y3511D01*
X1416Y3511D01*
X1379Y3493D01*
X1360Y3474D01*
X1341Y3437D01*
X1341Y3362D01*
X1360Y3325D01*
X1379Y3306D01*
X1416Y3287D01*
X1491Y3287D01*
X1528Y3306D01*
X1547Y3325D01*
X1565Y3362D01*
X2483Y5406D02*
X2483Y5593D01*
X2297Y5611D01*
X2315Y5593D01*
X2334Y5555D01*
X2334Y5462D01*
X2315Y5425D01*
X2297Y5406D01*
X2259Y5387D01*
X2166Y5387D01*
X2129Y5406D01*
X2110Y5425D01*
X2091Y5462D01*
X2091Y5555D01*
X2110Y5593D01*
X2129Y5611D01*
X1733Y6830D02*
X1733Y6587D01*
X1584Y6718D01*
X1584Y6662D01*
X1565Y6625D01*
X1547Y6606D01*
X1509Y6587D01*
X1416Y6587D01*
X1379Y6606D01*
X1360Y6625D01*
X1341Y6662D01*
X1341Y6774D01*
X1360Y6811D01*
X1379Y6830D01*
X1696Y9411D02*
X1715Y9393D01*
X1733Y9355D01*
X1733Y9262D01*
X1715Y9225D01*
X1696Y9206D01*
X1659Y9187D01*
X1621Y9187D01*
X1565Y9206D01*
X1341Y9430D01*
X1341Y9187D01*
G54D13*
X8209Y2915D02*
X8209Y3372D01*
X8359Y3143D02*
X8060Y3143D01*
X8359Y3972D02*
X8359Y3629D01*
X8359Y3801D02*
X7967Y3801D01*
X8023Y3744D01*
X8060Y3686D01*
X8079Y3629D01*
X7967Y4343D02*
X7967Y4400D01*
X7985Y4457D01*
X8004Y4486D01*
X8041Y4515D01*
X8116Y4543D01*
X8209Y4543D01*
X8284Y4515D01*
X8321Y4486D01*
X8340Y4457D01*
X8359Y4400D01*
X8359Y4343D01*
X8340Y4286D01*
X8321Y4257D01*
X8284Y4229D01*
X8209Y4200D01*
X8116Y4200D01*
X8041Y4229D01*
X8004Y4257D01*
X7985Y4286D01*
X7967Y4343D01*
X7967Y4914D02*
X7967Y4971D01*
X7985Y5028D01*
X8004Y5057D01*
X8041Y5086D01*
X8116Y5114D01*
X8209Y5114D01*
X8284Y5086D01*
X8321Y5057D01*
X8340Y5028D01*
X8359Y4971D01*
X8359Y4914D01*
X8340Y4857D01*
X8321Y4828D01*
X8284Y4800D01*
X8209Y4771D01*
X8116Y4771D01*
X8041Y4800D01*
X8004Y4828D01*
X7985Y4857D01*
X7967Y4914D01*
X8097Y5371D02*
X8359Y5371D01*
X8135Y5371D02*
X8116Y5399D01*
X8097Y5457D01*
X8097Y5542D01*
X8116Y5599D01*
X8153Y5628D01*
X8359Y5628D01*
X8153Y6114D02*
X8153Y5914D01*
X8359Y5914D02*
X7967Y5914D01*
X7967Y6200D01*
X8209Y6428D02*
X8209Y6885D01*
X6209Y4351D02*
X6209Y4008D01*
X6209Y4180D02*
X5817Y4180D01*
X5873Y4123D01*
X5910Y4065D01*
X5929Y4008D01*
X5817Y4722D02*
X5817Y4779D01*
X5835Y4836D01*
X5854Y4865D01*
X5891Y4894D01*
X5966Y4922D01*
X6059Y4922D01*
X6134Y4894D01*
X6171Y4865D01*
X6190Y4836D01*
X6209Y4779D01*
X6209Y4722D01*
X6190Y4665D01*
X6171Y4636D01*
X6134Y4608D01*
X6059Y4579D01*
X5966Y4579D01*
X5891Y4608D01*
X5854Y4636D01*
X5835Y4665D01*
X5817Y4722D01*
X5817Y5293D02*
X5817Y5350D01*
X5835Y5407D01*
X5854Y5436D01*
X5891Y5465D01*
X5966Y5493D01*
X6059Y5493D01*
X6134Y5465D01*
X6171Y5436D01*
X6190Y5407D01*
X6209Y5350D01*
X6209Y5293D01*
X6190Y5236D01*
X6171Y5207D01*
X6134Y5179D01*
X6059Y5150D01*
X5966Y5150D01*
X5891Y5179D01*
X5854Y5207D01*
X5835Y5236D01*
X5817Y5293D01*
X6209Y6093D02*
X6022Y5893D01*
X6209Y5750D02*
X5817Y5750D01*
X5817Y5978D01*
X5835Y6036D01*
X5854Y6064D01*
X5891Y6093D01*
X5947Y6093D01*
X5985Y6064D01*
X6003Y6036D01*
X6022Y5978D01*
X6022Y5750D01*
X4709Y4351D02*
X4709Y4008D01*
X4709Y4180D02*
X4317Y4180D01*
X4373Y4123D01*
X4410Y4065D01*
X4429Y4008D01*
X4317Y4722D02*
X4317Y4779D01*
X4335Y4836D01*
X4354Y4865D01*
X4391Y4894D01*
X4466Y4922D01*
X4559Y4922D01*
X4634Y4894D01*
X4671Y4865D01*
X4690Y4836D01*
X4709Y4779D01*
X4709Y4722D01*
X4690Y4665D01*
X4671Y4636D01*
X4634Y4608D01*
X4559Y4579D01*
X4466Y4579D01*
X4391Y4608D01*
X4354Y4636D01*
X4335Y4665D01*
X4317Y4722D01*
X4317Y5293D02*
X4317Y5350D01*
X4335Y5407D01*
X4354Y5436D01*
X4391Y5465D01*
X4466Y5493D01*
X4559Y5493D01*
X4634Y5465D01*
X4671Y5436D01*
X4690Y5407D01*
X4709Y5350D01*
X4709Y5293D01*
X4690Y5236D01*
X4671Y5207D01*
X4634Y5179D01*
X4559Y5150D01*
X4466Y5150D01*
X4391Y5179D01*
X4354Y5207D01*
X4335Y5236D01*
X4317Y5293D01*
X4709Y6093D02*
X4522Y5893D01*
X4709Y5750D02*
X4317Y5750D01*
X4317Y5978D01*
X4335Y6036D01*
X4354Y6064D01*
X4391Y6093D01*
X4447Y6093D01*
X4485Y6064D01*
X4503Y6036D01*
X4522Y5978D01*
X4522Y5750D01*
G54D11*
X16574Y8859D02*
X16798Y8859D01*
X16686Y8859D02*
X16686Y8467D01*
X16724Y8523D01*
X16761Y8560D01*
X16798Y8579D01*
X16220Y8467D02*
X16407Y8467D01*
X16425Y8653D01*
X16407Y8635D01*
X16369Y8616D01*
X16276Y8616D01*
X16239Y8635D01*
X16220Y8653D01*
X16201Y8691D01*
X16201Y8784D01*
X16220Y8821D01*
X16239Y8840D01*
X16276Y8859D01*
X16369Y8859D01*
X16407Y8840D01*
X16425Y8821D01*
X15574Y8859D02*
X15798Y8859D01*
X15686Y8859D02*
X15686Y8467D01*
X15724Y8523D01*
X15761Y8560D01*
X15798Y8579D01*
X15239Y8597D02*
X15239Y8859D01*
X15332Y8448D02*
X15425Y8728D01*
X15183Y8728D01*
X14351Y8591D02*
X14650Y8591D01*
X14500Y8441D02*
X14500Y8741D01*
X5870Y1533D02*
X6131Y1533D01*
X5963Y1141D01*
X7951Y1291D02*
X8250Y1291D01*
X8100Y1141D02*
X8100Y1441D01*
X6951Y1291D02*
X7250Y1291D01*
G54D14*
X6272Y8481D02*
X6729Y8481D01*
X7272Y8481D02*
X7729Y8481D01*
X7500Y8176D02*
X7500Y8786D01*
G54D15*
X14439Y3713D02*
X13849Y3713D01*
X14439Y3983D02*
X14102Y3781D01*
X13849Y3983D02*
X14186Y3713D01*
X14411Y4365D02*
X14439Y4320D01*
X14439Y4230D01*
X14411Y4185D01*
X14355Y4163D01*
X14130Y4163D01*
X14074Y4185D01*
X14045Y4230D01*
X14045Y4320D01*
X14074Y4365D01*
X14130Y4388D01*
X14186Y4388D01*
X14242Y4163D01*
X14439Y4590D02*
X13849Y4590D01*
X14214Y4635D02*
X14439Y4770D01*
X14045Y4770D02*
X14270Y4590D01*
X14130Y5130D02*
X14158Y5197D01*
X14186Y5220D01*
X14242Y5242D01*
X14326Y5242D01*
X14383Y5220D01*
X14411Y5197D01*
X14439Y5152D01*
X14439Y4972D01*
X13849Y4972D01*
X13849Y5130D01*
X13877Y5175D01*
X13905Y5197D01*
X13961Y5220D01*
X14017Y5220D01*
X14074Y5197D01*
X14102Y5175D01*
X14130Y5130D01*
X14130Y4972D01*
X14439Y5512D02*
X14411Y5467D01*
X14383Y5444D01*
X14326Y5422D01*
X14158Y5422D01*
X14102Y5444D01*
X14074Y5467D01*
X14045Y5512D01*
X14045Y5579D01*
X14074Y5624D01*
X14102Y5647D01*
X14158Y5669D01*
X14326Y5669D01*
X14383Y5647D01*
X14411Y5624D01*
X14439Y5579D01*
X14439Y5512D01*
X14045Y5804D02*
X14045Y5984D01*
X13849Y5871D02*
X14355Y5871D01*
X14411Y5894D01*
X14439Y5939D01*
X14439Y5984D01*
X14383Y6141D02*
X14411Y6164D01*
X14439Y6141D01*
X14411Y6119D01*
X14383Y6141D01*
X14439Y6141D01*
X14439Y6434D02*
X14411Y6389D01*
X14383Y6366D01*
X14326Y6344D01*
X14158Y6344D01*
X14102Y6366D01*
X14074Y6389D01*
X14045Y6434D01*
X14045Y6501D01*
X14074Y6546D01*
X14102Y6569D01*
X14158Y6591D01*
X14326Y6591D01*
X14383Y6569D01*
X14411Y6546D01*
X14439Y6501D01*
X14439Y6434D01*
X14439Y6793D02*
X14045Y6793D01*
X14158Y6793D02*
X14102Y6816D01*
X14074Y6838D01*
X14045Y6883D01*
X14045Y6928D01*
X14045Y7288D02*
X14523Y7288D01*
X14579Y7265D01*
X14607Y7243D01*
X14635Y7198D01*
X14635Y7130D01*
X14607Y7085D01*
X14411Y7288D02*
X14439Y7243D01*
X14439Y7153D01*
X14411Y7108D01*
X14383Y7085D01*
X14326Y7063D01*
X14158Y7063D01*
X14102Y7085D01*
X14074Y7108D01*
X14045Y7153D01*
X14045Y7243D01*
X14074Y7288D01*
G54D11*
X2925Y8598D02*
X2925Y8860D01*
X3018Y8449D02*
X3111Y8729D01*
X2869Y8729D01*
X4901Y8741D02*
X5200Y8741D01*
X3851Y8741D02*
X4150Y8741D01*
X4000Y8591D02*
X4000Y8891D01*
X5219Y8440D02*
X5184Y8459D01*
X5109Y8459D01*
X5069Y8440D01*
X5046Y8402D01*
X5044Y8384D01*
X5057Y8346D01*
X5093Y8328D01*
X5149Y8328D01*
X5184Y8309D01*
X5198Y8271D01*
X5196Y8253D01*
X5172Y8215D01*
X5133Y8197D01*
X5077Y8197D01*
X5041Y8215D01*
X4733Y8440D02*
X4772Y8459D01*
X4847Y8459D01*
X4882Y8440D01*
X4896Y8402D01*
X4878Y8253D01*
X4854Y8215D01*
X4815Y8197D01*
X4740Y8197D01*
X4705Y8215D01*
X4691Y8253D01*
X4695Y8290D01*
X4887Y8328D01*
X4547Y8459D02*
X4515Y8197D01*
X4524Y8271D02*
X4501Y8234D01*
X4480Y8215D01*
X4441Y8197D01*
X4403Y8197D01*
X4310Y8197D02*
X4248Y8459D01*
X4123Y8197D01*
X3949Y8459D02*
X3985Y8440D01*
X4001Y8421D01*
X4015Y8384D01*
X4001Y8271D01*
X3977Y8234D01*
X3957Y8215D01*
X3917Y8197D01*
X3861Y8197D01*
X3826Y8215D01*
X3809Y8234D01*
X3795Y8271D01*
X3809Y8384D01*
X3833Y8421D01*
X3854Y8440D01*
X3893Y8459D01*
X3949Y8459D01*
X16351Y1291D02*
X16650Y1291D01*
X15351Y1291D02*
X15650Y1291D01*
X15500Y1141D02*
X15500Y1441D01*
X14526Y1141D02*
X14302Y1141D01*
X14414Y1141D02*
X14414Y1533D01*
X14376Y1477D01*
X14339Y1440D01*
X14302Y1421D01*
X14656Y1533D02*
X14899Y1533D01*
X14768Y1384D01*
X14824Y1384D01*
X14861Y1365D01*
X14880Y1347D01*
X14899Y1309D01*
X14899Y1216D01*
X14880Y1179D01*
X14861Y1160D01*
X14824Y1141D01*
X14712Y1141D01*
X14675Y1160D01*
X14656Y1179D01*
X4351Y1291D02*
X4650Y1291D01*
X3351Y1291D02*
X3650Y1291D01*
X3500Y1141D02*
X3500Y1441D01*
X2526Y1141D02*
X2302Y1141D01*
X2414Y1141D02*
X2414Y1533D01*
X2376Y1477D01*
X2339Y1440D01*
X2302Y1421D01*
X2768Y1533D02*
X2805Y1533D01*
X2843Y1515D01*
X2861Y1496D01*
X2880Y1459D01*
X2899Y1384D01*
X2899Y1291D01*
X2880Y1216D01*
X2861Y1179D01*
X2843Y1160D01*
X2805Y1141D01*
X2768Y1141D01*
X2731Y1160D01*
X2712Y1179D01*
X2693Y1216D01*
X2675Y1291D01*
X2675Y1384D01*
X2693Y1459D01*
X2712Y1496D01*
X2731Y1515D01*
X2768Y1533D01*
X7384Y1441D02*
X7433Y1833D01*
X7795Y1441D02*
X7688Y1628D01*
X7571Y1441D02*
X7620Y1833D01*
X7770Y1833D01*
X7804Y1815D01*
X7821Y1796D01*
X7834Y1759D01*
X7827Y1703D01*
X7805Y1665D01*
X7783Y1647D01*
X7744Y1628D01*
X7594Y1628D01*
G54D14*
X17386Y7176D02*
X17043Y7176D01*
X17215Y7176D02*
X17215Y7976D01*
X17158Y7862D01*
X17100Y7786D01*
X17043Y7748D01*
X17729Y7633D02*
X17671Y7671D01*
X17643Y7710D01*
X17614Y7786D01*
X17614Y7824D01*
X17643Y7900D01*
X17671Y7938D01*
X17729Y7976D01*
X17843Y7976D01*
X17900Y7938D01*
X17929Y7900D01*
X17957Y7824D01*
X17957Y7786D01*
X17929Y7710D01*
X17900Y7671D01*
X17843Y7633D01*
X17729Y7633D01*
X17671Y7595D01*
X17643Y7557D01*
X17614Y7481D01*
X17614Y7329D01*
X17643Y7252D01*
X17671Y7214D01*
X17729Y7176D01*
X17843Y7176D01*
X17900Y7214D01*
X17929Y7252D01*
X17957Y7329D01*
X17957Y7481D01*
X17929Y7557D01*
X17900Y7595D01*
X17843Y7633D01*
X17386Y6176D02*
X17043Y6176D01*
X17215Y6176D02*
X17215Y6976D01*
X17158Y6862D01*
X17100Y6786D01*
X17043Y6748D01*
X17586Y6976D02*
X17986Y6976D01*
X17729Y6176D01*
X17386Y5176D02*
X17043Y5176D01*
X17215Y5176D02*
X17215Y5976D01*
X17158Y5862D01*
X17100Y5786D01*
X17043Y5748D01*
X17900Y5976D02*
X17786Y5976D01*
X17729Y5938D01*
X17700Y5900D01*
X17643Y5786D01*
X17614Y5633D01*
X17614Y5329D01*
X17643Y5252D01*
X17671Y5214D01*
X17729Y5176D01*
X17843Y5176D01*
X17900Y5214D01*
X17929Y5252D01*
X17957Y5329D01*
X17957Y5519D01*
X17929Y5595D01*
X17900Y5633D01*
X17843Y5671D01*
X17729Y5671D01*
X17671Y5633D01*
X17643Y5595D01*
X17614Y5519D01*
X17386Y4176D02*
X17043Y4176D01*
X17215Y4176D02*
X17215Y4976D01*
X17158Y4862D01*
X17100Y4786D01*
X17043Y4748D01*
X17929Y4976D02*
X17643Y4976D01*
X17614Y4595D01*
X17643Y4633D01*
X17700Y4671D01*
X17843Y4671D01*
X17900Y4633D01*
X17929Y4595D01*
X17957Y4519D01*
X17957Y4329D01*
X17929Y4252D01*
X17900Y4214D01*
X17843Y4176D01*
X17700Y4176D01*
X17643Y4214D01*
X17614Y4252D01*
X17386Y3176D02*
X17043Y3176D01*
X17215Y3176D02*
X17215Y3976D01*
X17158Y3862D01*
X17100Y3786D01*
X17043Y3748D01*
X17900Y3710D02*
X17900Y3176D01*
X17757Y4014D02*
X17614Y3443D01*
X17986Y3443D01*
X17386Y2176D02*
X17043Y2176D01*
X17215Y2176D02*
X17215Y2976D01*
X17158Y2862D01*
X17100Y2786D01*
X17043Y2748D01*
X17586Y2976D02*
X17957Y2976D01*
X17757Y2671D01*
X17843Y2671D01*
X17900Y2633D01*
X17929Y2595D01*
X17957Y2519D01*
X17957Y2329D01*
X17929Y2252D01*
X17900Y2214D01*
X17843Y2176D01*
X17671Y2176D01*
X17614Y2214D01*
X17586Y2252D01*
X17386Y1176D02*
X17043Y1176D01*
X17215Y1176D02*
X17215Y1976D01*
X17158Y1862D01*
X17100Y1786D01*
X17043Y1748D01*
X17614Y1900D02*
X17643Y1938D01*
X17700Y1976D01*
X17843Y1976D01*
X17900Y1938D01*
X17929Y1900D01*
X17957Y1824D01*
X17957Y1748D01*
X17929Y1633D01*
X17586Y1176D01*
X17957Y1176D01*
X17386Y176D02*
X17043Y176D01*
X17215Y176D02*
X17215Y976D01*
X17158Y862D01*
X17100Y786D01*
X17043Y748D01*
X17957Y176D02*
X17614Y176D01*
X17786Y176D02*
X17786Y976D01*
X17729Y862D01*
X17671Y786D01*
X17614Y748D01*
X1415Y4876D02*
X1301Y4876D01*
X1244Y4838D01*
X1215Y4800D01*
X1158Y4686D01*
X1129Y4533D01*
X1129Y4229D01*
X1158Y4152D01*
X1186Y4114D01*
X1244Y4076D01*
X1358Y4076D01*
X1415Y4114D01*
X1444Y4152D01*
X1472Y4229D01*
X1472Y4419D01*
X1444Y4495D01*
X1415Y4533D01*
X1358Y4571D01*
X1244Y4571D01*
X1186Y4533D01*
X1158Y4495D01*
X1129Y4419D01*
X1372Y9176D02*
X1029Y9176D01*
X1201Y9176D02*
X1201Y9976D01*
X1144Y9862D01*
X1086Y9786D01*
X1029Y9748D01*
G54D11*
X16402Y6559D02*
X16353Y6167D01*
X16189Y6204D02*
X16169Y6185D01*
X16128Y6167D01*
X16035Y6167D01*
X16001Y6185D01*
X15984Y6204D01*
X15970Y6241D01*
X15974Y6279D01*
X16000Y6335D01*
X16252Y6559D01*
X16009Y6559D01*
X15614Y6521D02*
X15634Y6540D01*
X15692Y6559D01*
X15730Y6559D01*
X15784Y6540D01*
X15816Y6503D01*
X15831Y6465D01*
X15839Y6391D01*
X15832Y6335D01*
X15805Y6260D01*
X15781Y6223D01*
X15740Y6185D01*
X15681Y6167D01*
X15643Y6167D01*
X15590Y6185D01*
X15574Y6204D01*
X9504Y1041D02*
X9553Y1433D01*
X9728Y1041D02*
X9588Y1265D01*
X9777Y1433D02*
X9525Y1209D01*
X10102Y1041D02*
X9878Y1041D01*
X9990Y1041D02*
X10039Y1433D01*
X9995Y1377D01*
X9952Y1340D01*
X9913Y1321D01*
X10296Y1396D02*
X10317Y1415D01*
X10357Y1433D01*
X10451Y1433D01*
X10485Y1415D01*
X10502Y1396D01*
X10515Y1359D01*
X10511Y1321D01*
X10486Y1265D01*
X10233Y1041D01*
X10476Y1041D01*
X12154Y1041D02*
X12203Y1433D01*
X12378Y1041D02*
X12238Y1265D01*
X12427Y1433D02*
X12175Y1209D01*
X12752Y1041D02*
X12528Y1041D01*
X12640Y1041D02*
X12689Y1433D01*
X12645Y1377D01*
X12602Y1340D01*
X12563Y1321D01*
X13126Y1041D02*
X12902Y1041D01*
X13014Y1041D02*
X13063Y1433D01*
X13019Y1377D01*
X12976Y1340D01*
X12937Y1321D01*
X15383Y1560D02*
X15418Y1541D01*
X15493Y1541D01*
X15532Y1560D01*
X15556Y1597D01*
X15558Y1616D01*
X15544Y1653D01*
X15509Y1672D01*
X15453Y1672D01*
X15417Y1691D01*
X15404Y1728D01*
X15406Y1747D01*
X15429Y1784D01*
X15469Y1803D01*
X15525Y1803D01*
X15560Y1784D01*
X15868Y1560D02*
X15828Y1541D01*
X15754Y1541D01*
X15718Y1560D01*
X15705Y1597D01*
X15723Y1747D01*
X15746Y1784D01*
X15786Y1803D01*
X15860Y1803D01*
X15896Y1784D01*
X15909Y1747D01*
X15905Y1709D01*
X15714Y1672D01*
X16052Y1541D02*
X16084Y1803D01*
X16075Y1728D02*
X16099Y1765D01*
X16120Y1784D01*
X16159Y1803D01*
X16196Y1803D01*
X16290Y1803D02*
X16351Y1541D01*
X16477Y1803D01*
X16650Y1541D02*
X16615Y1560D01*
X16598Y1579D01*
X16585Y1616D01*
X16599Y1728D01*
X16622Y1765D01*
X16643Y1784D01*
X16682Y1803D01*
X16738Y1803D01*
X16774Y1784D01*
X16790Y1765D01*
X16804Y1728D01*
X16790Y1616D01*
X16766Y1579D01*
X16746Y1560D01*
X16706Y1541D01*
X16650Y1541D01*
X3383Y1560D02*
X3418Y1541D01*
X3493Y1541D01*
X3532Y1560D01*
X3556Y1597D01*
X3558Y1616D01*
X3544Y1653D01*
X3509Y1672D01*
X3453Y1672D01*
X3417Y1691D01*
X3404Y1728D01*
X3406Y1747D01*
X3429Y1784D01*
X3469Y1803D01*
X3525Y1803D01*
X3560Y1784D01*
X3868Y1560D02*
X3828Y1541D01*
X3754Y1541D01*
X3718Y1560D01*
X3705Y1597D01*
X3723Y1747D01*
X3746Y1784D01*
X3786Y1803D01*
X3860Y1803D01*
X3896Y1784D01*
X3909Y1747D01*
X3905Y1709D01*
X3714Y1672D01*
X4052Y1541D02*
X4084Y1803D01*
X4075Y1728D02*
X4099Y1765D01*
X4120Y1784D01*
X4159Y1803D01*
X4196Y1803D01*
X4290Y1803D02*
X4351Y1541D01*
X4477Y1803D01*
X4650Y1541D02*
X4615Y1560D01*
X4598Y1579D01*
X4585Y1616D01*
X4599Y1728D01*
X4622Y1765D01*
X4643Y1784D01*
X4682Y1803D01*
X4738Y1803D01*
X4774Y1784D01*
X4790Y1765D01*
X4804Y1728D01*
X4790Y1616D01*
X4766Y1579D01*
X4746Y1560D01*
X4706Y1541D01*
X4650Y1541D01*
G54D16*
X5880Y9550D02*
X5880Y8050D01*
G54D17*
X7607Y8800D02*
X7593Y8663D01*
X7553Y8531D01*
X7488Y8409D01*
X7401Y8302D01*
X7295Y8214D01*
X7173Y8149D01*
X7042Y8108D01*
X6904Y8094D01*
X6768Y8106D01*
X6636Y8145D01*
X6513Y8209D01*
X6406Y8295D01*
X6317Y8401D01*
X6251Y8522D01*
X6209Y8654D01*
X6194Y8791D01*
X6205Y8927D01*
X6243Y9060D01*
X6306Y9182D01*
X6392Y9291D01*
X6497Y9380D01*
X6617Y9447D01*
X6749Y9490D01*
X6886Y9506D01*
X7022Y9496D01*
X7155Y9459D01*
X7278Y9396D01*
X7387Y9311D01*
X7477Y9207D01*
X7545Y9087D01*
X7589Y8956D01*
X7606Y8819D01*
X7607Y8800D01*
G54D18*
X5901Y8050D02*
X5970Y7966D01*
X6046Y7888D01*
X6129Y7817D01*
X6218Y7753D01*
X6312Y7698D01*
X6410Y7651D01*
X6512Y7612D01*
X6617Y7583D01*
X6724Y7563D01*
X6833Y7552D01*
X6941Y7551D01*
X7050Y7560D01*
X7157Y7577D01*
X7263Y7604D01*
X7366Y7641D01*
X7465Y7686D01*
X7560Y7739D01*
X7650Y7801D01*
X7734Y7870D01*
X7812Y7946D01*
X7883Y8029D01*
X7947Y8118D01*
X8002Y8212D01*
X8049Y8310D01*
X8088Y8412D01*
X8117Y8517D01*
X8137Y8624D01*
X8148Y8733D01*
X8149Y8841D01*
X8140Y8950D01*
X8123Y9057D01*
X8096Y9163D01*
X8059Y9266D01*
X8014Y9365D01*
X7961Y9460D01*
X7899Y9550D01*
X7830Y9634D01*
X7754Y9712D01*
X7671Y9783D01*
X7582Y9847D01*
X7488Y9902D01*
X7390Y9949D01*
X7288Y9988D01*
X7183Y10017D01*
X7076Y10037D01*
X6967Y10048D01*
X6859Y10049D01*
X6750Y10040D01*
X6643Y10023D01*
X6537Y9996D01*
X6434Y9959D01*
X6335Y9914D01*
X6240Y9861D01*
X6150Y9799D01*
X6066Y9730D01*
X5988Y9654D01*
X5917Y9571D01*
X5901Y9550D01*
G54D10*
X6900Y8350D02*
X6939Y8352D01*
X6978Y8357D01*
X7016Y8366D01*
X7053Y8378D01*
X7090Y8393D01*
X7125Y8411D01*
X7158Y8432D01*
X7189Y8456D01*
X7218Y8482D01*
X7244Y8511D01*
X7268Y8542D01*
X7289Y8576D01*
X7307Y8610D01*
X7322Y8647D01*
X7334Y8684D01*
X7343Y8722D01*
X7348Y8761D01*
X7350Y8800D01*
X6900Y9250D02*
X6861Y9248D01*
X6822Y9243D01*
X6784Y9234D01*
X6747Y9222D01*
X6710Y9207D01*
X6676Y9189D01*
X6642Y9168D01*
X6611Y9144D01*
X6582Y9118D01*
X6556Y9089D01*
X6532Y9058D01*
X6511Y9024D01*
X6493Y8990D01*
X6478Y8953D01*
X6466Y8916D01*
X6457Y8878D01*
X6452Y8839D01*
X6450Y8800D01*
X6900Y8150D02*
X6956Y8153D01*
X7012Y8160D01*
X7068Y8173D01*
X7122Y8190D01*
X7174Y8211D01*
X7225Y8238D01*
X7272Y8268D01*
X7317Y8303D01*
X7359Y8341D01*
X7397Y8383D01*
X7432Y8428D01*
X7462Y8476D01*
X7489Y8526D01*
X7510Y8578D01*
X7527Y8632D01*
X7540Y8688D01*
X7547Y8744D01*
X7550Y8800D01*
X6900Y9450D02*
X6844Y9447D01*
X6788Y9440D01*
X6732Y9427D01*
X6678Y9410D01*
X6626Y9389D01*
X6576Y9362D01*
X6528Y9332D01*
X6483Y9297D01*
X6441Y9259D01*
X6403Y9217D01*
X6368Y9172D01*
X6338Y9124D01*
X6311Y9074D01*
X6290Y9022D01*
X6273Y8968D01*
X6260Y8912D01*
X6253Y8856D01*
X6250Y8800D01*
X6900Y7950D02*
X6974Y7954D01*
X7047Y7963D01*
X7119Y7979D01*
X7190Y8002D01*
X7259Y8030D01*
X7325Y8064D01*
X7387Y8104D01*
X7446Y8149D01*
X7501Y8199D01*
X7551Y8254D01*
X7596Y8313D01*
X7636Y8376D01*
X7670Y8441D01*
X7698Y8510D01*
X7721Y8581D01*
X7737Y8653D01*
X7746Y8726D01*
X7750Y8800D01*
X6900Y9650D02*
X6826Y9646D01*
X6753Y9637D01*
X6681Y9621D01*
X6610Y9598D01*
X6541Y9570D01*
X6476Y9536D01*
X6413Y9496D01*
X6354Y9451D01*
X6299Y9401D01*
X6249Y9346D01*
X6204Y9287D01*
X6164Y9224D01*
X6130Y9159D01*
X6102Y9090D01*
X6079Y9019D01*
X6063Y8947D01*
X6054Y8874D01*
X6050Y8800D01*
G54D14*
X6000Y3000D02*
X6000Y3400D01*
X6000Y3400D02*
X5600Y3400D01*
X5600Y3400D02*
X5600Y6600D01*
X5600Y6600D02*
X6400Y6600D01*
X6400Y6600D02*
X6400Y3400D01*
X6400Y3400D02*
X6000Y3400D01*
X5800Y3400D02*
X5600Y3600D01*
X6000Y7000D02*
X6000Y6600D01*
X4500Y7000D02*
X4500Y6600D01*
X4500Y6600D02*
X4900Y6600D01*
X4900Y6600D02*
X4900Y3400D01*
X4900Y3400D02*
X4100Y3400D01*
X4100Y3400D02*
X4100Y6600D01*
X4100Y6600D02*
X4500Y6600D01*
X4700Y6600D02*
X4900Y6400D01*
X4500Y3000D02*
X4500Y3400D01*
G54D12*
X13500Y9900D02*
X11500Y9900D01*
X11500Y9900D02*
X11500Y1900D01*
X11500Y1900D02*
X13500Y1900D01*
X13500Y1900D02*
X13500Y9900D01*
X11000Y9900D02*
X9000Y9900D01*
X9000Y9900D02*
X9000Y1900D01*
X9000Y1900D02*
X11000Y1900D01*
X11000Y1900D02*
X11000Y9900D01*
G54D18*
X18000Y9000D02*
X14000Y9000D01*
X18000Y10000D02*
X14000Y10000D01*
X14000Y10000D02*
X14000Y9000D01*
X18000Y9000D02*
X18000Y10000D01*
G54D10*
X5500Y0D02*
X5500Y1000D01*
X5500Y1000D02*
X8500Y1000D01*
X8500Y1000D02*
X8500Y0D01*
X8500Y0D02*
X5500Y0D01*
X6500Y1000D02*
X6500Y0D01*
X14000Y0D02*
X14000Y1000D01*
X14000Y1000D02*
X17000Y1000D01*
X17000Y1000D02*
X17000Y0D01*
X17000Y0D02*
X14000Y0D01*
X15000Y1000D02*
X15000Y0D01*
X2000Y0D02*
X2000Y1000D01*
X2000Y1000D02*
X5000Y1000D01*
X5000Y1000D02*
X5000Y0D01*
X5000Y0D02*
X2000Y0D01*
X3000Y1000D02*
X3000Y0D01*
X9000Y0D02*
X9000Y1000D01*
X9000Y1000D02*
X11000Y1000D01*
X11000Y1000D02*
X11000Y0D01*
X11000Y0D02*
X9000Y0D01*
X11500Y0D02*
X11500Y1000D01*
X11500Y1000D02*
X13500Y1000D01*
X13500Y1000D02*
X13500Y0D01*
X13500Y0D02*
X11500Y0D01*
X2500Y9000D02*
X2500Y10000D01*
X2500Y10000D02*
X5500Y10000D01*
X5500Y10000D02*
X5500Y9000D01*
X5500Y9000D02*
X2500Y9000D01*
X3500Y10000D02*
X3500Y9000D01*
X1000Y3000D02*
X2000Y3000D01*
X2000Y3000D02*
X2000Y1000D01*
X2000Y1000D02*
X1000Y1000D01*
X1000Y1000D02*
X1000Y3000D01*
X2000Y5000D02*
X1000Y5000D01*
X1000Y6000D02*
X2000Y6000D01*
X1000Y5000D02*
X1000Y6000D01*
X2000Y6000D02*
X2000Y5000D01*
X1000Y9000D02*
X2000Y9000D01*
X2000Y9000D02*
X2000Y7000D01*
X2000Y7000D02*
X1000Y7000D01*
X1000Y7000D02*
X1000Y9000D01*
G54D14*
X7100Y3600D02*
X7100Y6400D01*
X7100Y6400D02*
X7900Y6400D01*
X7900Y6400D02*
X7900Y3600D01*
X7900Y3600D02*
X7100Y3600D01*
X7300Y3600D02*
X7100Y3800D01*
G54D12*
X-500Y0D02*
X19500Y0D01*
X19500Y0D02*
X19500Y10000D01*
X19500Y10000D02*
X-500Y10000D01*
X-500Y10000D02*
X-500Y0D01*
%LPC*%
G54D19*
X7500Y8800D03*
X6500Y8800D03*
G54D20*
X6000Y3000D03*
X6000Y7000D03*
X4500Y7000D03*
X4500Y3000D03*
X12500Y8900D03*
X12500Y6900D03*
X12500Y4900D03*
X12500Y2900D03*
X10000Y8900D03*
X10000Y6900D03*
X10000Y4900D03*
X10000Y2900D03*
G54D21*
X14500Y9500D03*
G54D20*
X15500Y9500D03*
X16500Y9500D03*
X17500Y9500D03*
G54D21*
X6000Y500D03*
G54D20*
X7000Y500D03*
X8000Y500D03*
G54D21*
X14500Y500D03*
G54D20*
X15500Y500D03*
X16500Y500D03*
G54D21*
X2500Y500D03*
G54D20*
X3500Y500D03*
X4500Y500D03*
G54D21*
X9500Y500D03*
G54D20*
X10500Y500D03*
G54D21*
X12000Y500D03*
G54D20*
X13000Y500D03*
G54D21*
X3000Y9500D03*
G54D20*
X4000Y9500D03*
X5000Y9500D03*
G54D21*
X1500Y2500D03*
G54D20*
X1500Y1500D03*
G54D21*
X1500Y5500D03*
X1500Y8500D03*
G54D20*
X1500Y7500D03*
G54D22*
X7500Y4000D03*
X7500Y6000D03*
G54D23*
X500Y9500D03*
X500Y8500D03*
X500Y7500D03*
X500Y6500D03*
X500Y5500D03*
X500Y4500D03*
X500Y3500D03*
G54D24*
X500Y2500D03*
G54D23*
X500Y1500D03*
G54D24*
X500Y500D03*
G54D23*
X18500Y500D03*
X18500Y1500D03*
X18500Y2500D03*
X18500Y3500D03*
X18500Y4500D03*
X18500Y5500D03*
X18500Y6500D03*
X18500Y7500D03*
X18500Y8500D03*
X18500Y9500D03*
M02*
