G04 (created by PCBNEW-RS274X (2011-nov-30)-testing) date Sun 24 Jun 2012 01:39:46 PM CEST*
%MOIN*%
G04 Gerber Fmt 3.4, Leading zero omitted, Abs format*
%FSLAX34Y34*%
G01*
G70*
G90*
G04 APERTURE LIST*
%ADD10C,0.006*%
%ADD11C,0.012*%
%ADD12C,0.015*%
G04 APERTURE END LIST*
G54D10*
G54D11*
X-2739Y7485D02*
X-2701Y7456D01*
X-2663Y7399D01*
X-2663Y7256D01*
X-2701Y7199D01*
X-2739Y7170D01*
X-2815Y7142D01*
X-2891Y7142D01*
X-3006Y7170D01*
X-3463Y7513D01*
X-3463Y7142D01*
X-2663Y6942D02*
X-2663Y6542D01*
X-3463Y6799D01*
X-3387Y6314D02*
X-3425Y6286D01*
X-3463Y6314D01*
X-3425Y6343D01*
X-3387Y6314D01*
X-3463Y6314D01*
X-3463Y6000D02*
X-3463Y5885D01*
X-3425Y5828D01*
X-3387Y5800D01*
X-3272Y5742D01*
X-3120Y5714D01*
X-2815Y5714D01*
X-2739Y5742D01*
X-2701Y5771D01*
X-2663Y5828D01*
X-2663Y5942D01*
X-2701Y6000D01*
X-2739Y6028D01*
X-2815Y6057D01*
X-3006Y6057D01*
X-3082Y6028D01*
X-3120Y6000D01*
X-3158Y5942D01*
X-3158Y5828D01*
X-3120Y5771D01*
X-3082Y5742D01*
X-3006Y5714D01*
X-2929Y5200D02*
X-3463Y5200D01*
X-2625Y5343D02*
X-3196Y5486D01*
X-3196Y5114D01*
X-2663Y4772D02*
X-2663Y4715D01*
X-2701Y4658D01*
X-2739Y4629D01*
X-2815Y4600D01*
X-2968Y4572D01*
X-3158Y4572D01*
X-3310Y4600D01*
X-3387Y4629D01*
X-3425Y4658D01*
X-3463Y4715D01*
X-3463Y4772D01*
X-3425Y4829D01*
X-3387Y4858D01*
X-3310Y4886D01*
X-3158Y4915D01*
X-2968Y4915D01*
X-2815Y4886D01*
X-2739Y4858D01*
X-2701Y4829D01*
X-2663Y4772D01*
X-3463Y3858D02*
X-2929Y3858D01*
X-3006Y3858D02*
X-2968Y3830D01*
X-2929Y3772D01*
X-2929Y3687D01*
X-2968Y3630D01*
X-3044Y3601D01*
X-3463Y3601D01*
X-3044Y3601D02*
X-2968Y3572D01*
X-2929Y3515D01*
X-2929Y3430D01*
X-2968Y3372D01*
X-3044Y3344D01*
X-3463Y3344D01*
X-3463Y3058D02*
X-2929Y3058D01*
X-3006Y3058D02*
X-2968Y3030D01*
X-2929Y2972D01*
X-2929Y2887D01*
X-2968Y2830D01*
X-3044Y2801D01*
X-3463Y2801D01*
X-3044Y2801D02*
X-2968Y2772D01*
X-2929Y2715D01*
X-2929Y2630D01*
X-2968Y2572D01*
X-3044Y2544D01*
X-3463Y2544D01*
X-2499Y10500D02*
X-2499Y-500D01*
X-500Y10500D02*
X-3779Y10500D01*
X-500Y-500D02*
X-3779Y-500D01*
X-2499Y-500D02*
X-2729Y-57D01*
X-2499Y-500D02*
X-2269Y-57D01*
X-2499Y10500D02*
X-2729Y10057D01*
X-2499Y10500D02*
X-2269Y10057D01*
X7330Y13615D02*
X7044Y13615D01*
X7015Y13234D01*
X7044Y13272D01*
X7101Y13310D01*
X7244Y13310D01*
X7301Y13272D01*
X7330Y13234D01*
X7358Y13158D01*
X7358Y12968D01*
X7330Y12891D01*
X7301Y12853D01*
X7244Y12815D01*
X7101Y12815D01*
X7044Y12853D01*
X7015Y12891D01*
X7729Y13615D02*
X7786Y13615D01*
X7843Y13577D01*
X7872Y13539D01*
X7901Y13463D01*
X7929Y13310D01*
X7929Y13120D01*
X7901Y12968D01*
X7872Y12891D01*
X7843Y12853D01*
X7786Y12815D01*
X7729Y12815D01*
X7672Y12853D01*
X7643Y12891D01*
X7615Y12968D01*
X7586Y13120D01*
X7586Y13310D01*
X7615Y13463D01*
X7643Y13539D01*
X7672Y13577D01*
X7729Y13615D01*
X8186Y12891D02*
X8214Y12853D01*
X8186Y12815D01*
X8157Y12853D01*
X8186Y12891D01*
X8186Y12815D01*
X8558Y13272D02*
X8500Y13310D01*
X8472Y13349D01*
X8443Y13425D01*
X8443Y13463D01*
X8472Y13539D01*
X8500Y13577D01*
X8558Y13615D01*
X8672Y13615D01*
X8729Y13577D01*
X8758Y13539D01*
X8786Y13463D01*
X8786Y13425D01*
X8758Y13349D01*
X8729Y13310D01*
X8672Y13272D01*
X8558Y13272D01*
X8500Y13234D01*
X8472Y13196D01*
X8443Y13120D01*
X8443Y12968D01*
X8472Y12891D01*
X8500Y12853D01*
X8558Y12815D01*
X8672Y12815D01*
X8729Y12853D01*
X8758Y12891D01*
X8786Y12968D01*
X8786Y13120D01*
X8758Y13196D01*
X8729Y13234D01*
X8672Y13272D01*
X9157Y13615D02*
X9214Y13615D01*
X9271Y13577D01*
X9300Y13539D01*
X9329Y13463D01*
X9357Y13310D01*
X9357Y13120D01*
X9329Y12968D01*
X9300Y12891D01*
X9271Y12853D01*
X9214Y12815D01*
X9157Y12815D01*
X9100Y12853D01*
X9071Y12891D01*
X9043Y12968D01*
X9014Y13120D01*
X9014Y13310D01*
X9043Y13463D01*
X9071Y13539D01*
X9100Y13577D01*
X9157Y13615D01*
X9728Y13615D02*
X9785Y13615D01*
X9842Y13577D01*
X9871Y13539D01*
X9900Y13463D01*
X9928Y13310D01*
X9928Y13120D01*
X9900Y12968D01*
X9871Y12891D01*
X9842Y12853D01*
X9785Y12815D01*
X9728Y12815D01*
X9671Y12853D01*
X9642Y12891D01*
X9614Y12968D01*
X9585Y13120D01*
X9585Y13310D01*
X9614Y13463D01*
X9642Y13539D01*
X9671Y13577D01*
X9728Y13615D01*
X10642Y12815D02*
X10642Y13349D01*
X10642Y13272D02*
X10670Y13310D01*
X10728Y13349D01*
X10813Y13349D01*
X10870Y13310D01*
X10899Y13234D01*
X10899Y12815D01*
X10899Y13234D02*
X10928Y13310D01*
X10985Y13349D01*
X11070Y13349D01*
X11128Y13310D01*
X11156Y13234D01*
X11156Y12815D01*
X11442Y12815D02*
X11442Y13349D01*
X11442Y13272D02*
X11470Y13310D01*
X11528Y13349D01*
X11613Y13349D01*
X11670Y13310D01*
X11699Y13234D01*
X11699Y12815D01*
X11699Y13234D02*
X11728Y13310D01*
X11785Y13349D01*
X11870Y13349D01*
X11928Y13310D01*
X11956Y13234D01*
X11956Y12815D01*
X19500Y12499D02*
X-500Y12499D01*
X19500Y10500D02*
X19500Y13779D01*
X-500Y10500D02*
X-500Y13779D01*
X-500Y12499D02*
X-57Y12729D01*
X-500Y12499D02*
X-57Y12269D01*
X19500Y12499D02*
X19057Y12729D01*
X19500Y12499D02*
X19057Y12269D01*
G54D12*
X-500Y-500D02*
X-500Y10500D01*
X19500Y-500D02*
X-500Y-500D01*
X19500Y10500D02*
X19500Y-500D01*
X-500Y10500D02*
X19500Y10500D01*
M02*
