M48
;DRILL file {Pcbnew (2011-nov-30)-testing} date Sun 24 Jun 2012 01:32:34 PM CEST
;FORMAT={-:-/ absolute / inch / decimal}
FMAT,2
INCH,TZ
T1C0.025
T2C0.032
T3C0.039
T4C0.040
%
G90
G05
M72
T1
X1.450Y0.300
T2
X0.450Y0.700
X0.450Y0.300
X0.600Y0.700
X0.600Y0.300
X0.650Y0.880
X0.750Y0.880
X0.750Y0.600
X0.750Y0.400
X1.000Y0.850
X1.000Y0.650
X1.000Y0.450
X1.000Y0.250
X1.250Y0.850
X1.250Y0.650
X1.250Y0.450
X1.250Y0.250
T3
X0.050Y0.950
X0.050Y0.850
X0.050Y0.750
X0.050Y0.650
X0.050Y0.550
X0.050Y0.450
X0.050Y0.350
X0.050Y0.250
X0.050Y0.150
X0.050Y0.050
X1.850Y0.950
X1.850Y0.850
X1.850Y0.750
X1.850Y0.650
X1.850Y0.550
X1.850Y0.450
X1.850Y0.350
X1.850Y0.250
X1.850Y0.150
X1.850Y0.050
T4
X0.150Y0.850
X0.150Y0.750
X0.150Y0.550
X0.150Y0.250
X0.150Y0.150
X0.250Y0.050
X0.300Y0.950
X0.350Y0.050
X0.400Y0.950
X0.450Y0.050
X0.500Y0.950
X0.600Y0.050
X0.700Y0.050
X0.800Y0.050
X0.950Y0.050
X1.050Y0.050
X1.200Y0.050
X1.300Y0.050
X1.450Y0.950
X1.450Y0.050
X1.550Y0.950
X1.550Y0.050
X1.650Y0.950
X1.650Y0.050
X1.750Y0.950
T0
M30
