G04 (created by PCBNEW-RS274X (2012-01-19 BZR 3256)-stable) date 9/16/2014 16:46:16*
G01*
G70*
G90*
%MOIN*%
G04 Gerber Fmt 3.4, Leading zero omitted, Abs format*
%FSLAX34Y34*%
G04 APERTURE LIST*
%ADD10C,0.006000*%
%ADD11C,0.096000*%
%ADD12C,0.090000*%
%ADD13R,0.090000X0.090000*%
%ADD14C,0.085000*%
%ADD15O,0.148700X0.089200*%
%ADD16O,0.148700X0.090000*%
G04 APERTURE END LIST*
G54D10*
G54D11*
X07500Y08800D03*
X06500Y08800D03*
G54D12*
X06000Y03000D03*
X06000Y07000D03*
X04500Y07000D03*
X04500Y03000D03*
X12500Y08900D03*
X12500Y06900D03*
X12500Y04900D03*
X12500Y02900D03*
X10000Y08900D03*
X10000Y06900D03*
X10000Y04900D03*
X10000Y02900D03*
G54D13*
X14500Y09500D03*
G54D12*
X15500Y09500D03*
X16500Y09500D03*
X17500Y09500D03*
G54D13*
X06000Y00500D03*
G54D12*
X07000Y00500D03*
X08000Y00500D03*
G54D13*
X14500Y00500D03*
G54D12*
X15500Y00500D03*
X16500Y00500D03*
G54D13*
X02500Y00500D03*
G54D12*
X03500Y00500D03*
X04500Y00500D03*
G54D13*
X09500Y00500D03*
G54D12*
X10500Y00500D03*
G54D13*
X12000Y00500D03*
G54D12*
X13000Y00500D03*
G54D13*
X03000Y09500D03*
G54D12*
X04000Y09500D03*
X05000Y09500D03*
G54D13*
X01500Y02500D03*
G54D12*
X01500Y01500D03*
G54D13*
X01500Y05500D03*
X01500Y08500D03*
G54D12*
X01500Y07500D03*
G54D14*
X07500Y04000D03*
X07500Y06000D03*
G54D15*
X00500Y09500D03*
X00500Y08500D03*
X00500Y07500D03*
X00500Y06500D03*
X00500Y05500D03*
X00500Y04500D03*
X00500Y03500D03*
G54D16*
X00500Y02500D03*
G54D15*
X00500Y01500D03*
G54D16*
X00500Y00500D03*
G54D15*
X18500Y00500D03*
X18500Y01500D03*
X18500Y02500D03*
X18500Y03500D03*
X18500Y04500D03*
X18500Y05500D03*
X18500Y06500D03*
X18500Y07500D03*
X18500Y08500D03*
X18500Y09500D03*
M02*
