G04 (created by PCBNEW-RS274X (2012-01-19 BZR 3256)-stable) date 9/16/2014 16:46:15*
G01*
G70*
G90*
%MOIN*%
G04 Gerber Fmt 3.4, Leading zero omitted, Abs format*
%FSLAX34Y34*%
G04 APERTURE LIST*
%ADD10C,0.006000*%
%ADD11C,0.066000*%
%ADD12C,0.060000*%
%ADD13R,0.060000X0.060000*%
%ADD14C,0.055000*%
%ADD15O,0.118700X0.059200*%
%ADD16O,0.118700X0.060000*%
%ADD17C,0.035000*%
%ADD18C,0.020000*%
%ADD19C,0.010000*%
G04 APERTURE END LIST*
G54D10*
G54D11*
X07500Y08800D03*
X06500Y08800D03*
G54D12*
X06000Y03000D03*
X06000Y07000D03*
X04500Y07000D03*
X04500Y03000D03*
X12500Y08900D03*
X12500Y06900D03*
X12500Y04900D03*
X12500Y02900D03*
X10000Y08900D03*
X10000Y06900D03*
X10000Y04900D03*
X10000Y02900D03*
G54D13*
X14500Y09500D03*
G54D12*
X15500Y09500D03*
X16500Y09500D03*
X17500Y09500D03*
G54D13*
X06000Y00500D03*
G54D12*
X07000Y00500D03*
X08000Y00500D03*
G54D13*
X14500Y00500D03*
G54D12*
X15500Y00500D03*
X16500Y00500D03*
G54D13*
X02500Y00500D03*
G54D12*
X03500Y00500D03*
X04500Y00500D03*
G54D13*
X09500Y00500D03*
G54D12*
X10500Y00500D03*
G54D13*
X12000Y00500D03*
G54D12*
X13000Y00500D03*
G54D13*
X03000Y09500D03*
G54D12*
X04000Y09500D03*
X05000Y09500D03*
G54D13*
X01500Y02500D03*
G54D12*
X01500Y01500D03*
G54D13*
X01500Y05500D03*
X01500Y08500D03*
G54D12*
X01500Y07500D03*
G54D14*
X07500Y04000D03*
X07500Y06000D03*
G54D15*
X00500Y09500D03*
X00500Y08500D03*
X00500Y07500D03*
X00500Y06500D03*
X00500Y05500D03*
X00500Y04500D03*
X00500Y03500D03*
G54D16*
X00500Y02500D03*
G54D15*
X00500Y01500D03*
G54D16*
X00500Y00500D03*
G54D15*
X18500Y00500D03*
X18500Y01500D03*
X18500Y02500D03*
X18500Y03500D03*
X18500Y04500D03*
X18500Y05500D03*
X18500Y06500D03*
X18500Y07500D03*
X18500Y08500D03*
X18500Y09500D03*
G54D17*
X14500Y03000D03*
G54D18*
X04500Y00500D02*
X04500Y01000D01*
X06000Y01500D02*
X07000Y00500D01*
X05000Y01500D02*
X06000Y01500D01*
X04500Y01000D02*
X05000Y01500D01*
X16500Y00500D02*
X16500Y01000D01*
X16500Y01000D02*
X14500Y03000D01*
X18500Y00500D02*
X17900Y00500D01*
X13500Y04900D02*
X12500Y04900D01*
X17900Y00500D02*
X13500Y04900D01*
X10000Y04900D02*
X10800Y04900D01*
X17800Y01500D02*
X18500Y01500D01*
X13300Y06000D02*
X17800Y01500D01*
X11900Y06000D02*
X13300Y06000D01*
X10800Y04900D02*
X11900Y06000D01*
X16500Y09500D02*
X16500Y05500D01*
X17500Y04500D02*
X18500Y04500D01*
X16500Y05500D02*
X17500Y04500D01*
X02500Y00500D02*
X00500Y00500D01*
G54D19*
X02000Y00500D02*
X00500Y00500D01*
G54D18*
X15500Y09500D02*
X15500Y05500D01*
X17500Y03500D02*
X18500Y03500D01*
X15500Y05500D02*
X17500Y03500D01*
G54D10*
G36*
X17993Y02001D02*
X17884Y01955D01*
X17861Y01933D01*
X14450Y05344D01*
X14450Y09012D01*
X14450Y09450D01*
X14012Y09450D01*
X13950Y09388D01*
X13951Y09249D01*
X13951Y09150D01*
X13989Y09059D01*
X14059Y08989D01*
X14151Y08951D01*
X14388Y08950D01*
X14450Y09012D01*
X14450Y05344D01*
X13547Y06247D01*
X13434Y06323D01*
X13300Y06350D01*
X13049Y06350D01*
X13049Y08791D01*
X13049Y09009D01*
X12965Y09211D01*
X12811Y09365D01*
X12609Y09449D01*
X12391Y09449D01*
X12189Y09365D01*
X12035Y09211D01*
X11951Y09009D01*
X11951Y08791D01*
X12035Y08589D01*
X12189Y08435D01*
X12391Y08351D01*
X12609Y08351D01*
X12811Y08435D01*
X12965Y08589D01*
X13049Y08791D01*
X13049Y06350D01*
X13043Y06350D01*
X13043Y06821D01*
X13032Y07034D01*
X12972Y07181D01*
X12878Y07208D01*
X12808Y07138D01*
X12808Y07278D01*
X12781Y07372D01*
X12579Y07443D01*
X12366Y07432D01*
X12219Y07372D01*
X12192Y07278D01*
X12500Y06971D01*
X12808Y07278D01*
X12808Y07138D01*
X12571Y06900D01*
X12878Y06592D01*
X12972Y06619D01*
X13043Y06821D01*
X13043Y06350D01*
X12808Y06350D01*
X12808Y06522D01*
X12500Y06829D01*
X12429Y06759D01*
X12429Y06900D01*
X12122Y07208D01*
X12028Y07181D01*
X11957Y06979D01*
X11968Y06766D01*
X12028Y06619D01*
X12122Y06592D01*
X12429Y06900D01*
X12429Y06759D01*
X12192Y06522D01*
X12219Y06428D01*
X12421Y06357D01*
X12634Y06368D01*
X12781Y06428D01*
X12808Y06522D01*
X12808Y06350D01*
X11900Y06350D01*
X11766Y06323D01*
X11652Y06247D01*
X10655Y05250D01*
X10549Y05250D01*
X10549Y08791D01*
X10549Y09009D01*
X10465Y09211D01*
X10311Y09365D01*
X10109Y09449D01*
X09891Y09449D01*
X09689Y09365D01*
X09535Y09211D01*
X09451Y09009D01*
X09451Y08791D01*
X09535Y08589D01*
X09689Y08435D01*
X09891Y08351D01*
X10109Y08351D01*
X10311Y08435D01*
X10465Y08589D01*
X10549Y08791D01*
X10549Y05250D01*
X10543Y05250D01*
X10543Y06821D01*
X10532Y07034D01*
X10472Y07181D01*
X10378Y07208D01*
X10308Y07138D01*
X10308Y07278D01*
X10281Y07372D01*
X10079Y07443D01*
X09866Y07432D01*
X09719Y07372D01*
X09692Y07278D01*
X10000Y06971D01*
X10308Y07278D01*
X10308Y07138D01*
X10071Y06900D01*
X10378Y06592D01*
X10472Y06619D01*
X10543Y06821D01*
X10543Y05250D01*
X10426Y05250D01*
X10311Y05365D01*
X10308Y05367D01*
X10308Y06522D01*
X10000Y06829D01*
X09929Y06759D01*
X09929Y06900D01*
X09622Y07208D01*
X09528Y07181D01*
X09457Y06979D01*
X09468Y06766D01*
X09528Y06619D01*
X09622Y06592D01*
X09929Y06900D01*
X09929Y06759D01*
X09692Y06522D01*
X09719Y06428D01*
X09921Y06357D01*
X10134Y06368D01*
X10281Y06428D01*
X10308Y06522D01*
X10308Y05367D01*
X10109Y05449D01*
X09891Y05449D01*
X09689Y05365D01*
X09535Y05211D01*
X09451Y05009D01*
X09451Y04791D01*
X09535Y04589D01*
X09689Y04435D01*
X09891Y04351D01*
X10109Y04351D01*
X10311Y04435D01*
X10426Y04550D01*
X10800Y04550D01*
X10800Y04551D01*
X10934Y04577D01*
X11047Y04653D01*
X12044Y05650D01*
X13155Y05650D01*
X13569Y05236D01*
X13500Y05250D01*
X12926Y05250D01*
X12811Y05365D01*
X12609Y05449D01*
X12391Y05449D01*
X12189Y05365D01*
X12035Y05211D01*
X11951Y05009D01*
X11951Y04791D01*
X12035Y04589D01*
X12189Y04435D01*
X12391Y04351D01*
X12609Y04351D01*
X12811Y04435D01*
X12926Y04550D01*
X13355Y04550D01*
X14480Y03425D01*
X14416Y03425D01*
X14260Y03361D01*
X14140Y03241D01*
X14075Y03085D01*
X14075Y02916D01*
X14139Y02760D01*
X14259Y02640D01*
X14415Y02575D01*
X14430Y02575D01*
X16114Y00891D01*
X16035Y00811D01*
X15997Y00720D01*
X15972Y00781D01*
X15878Y00808D01*
X15808Y00738D01*
X15808Y00878D01*
X15781Y00972D01*
X15579Y01043D01*
X15366Y01032D01*
X15219Y00972D01*
X15192Y00878D01*
X15500Y00571D01*
X15808Y00878D01*
X15808Y00738D01*
X15571Y00500D01*
X15878Y00192D01*
X15972Y00219D01*
X15995Y00285D01*
X16035Y00189D01*
X16174Y00050D01*
X15787Y00050D01*
X15808Y00122D01*
X15500Y00429D01*
X15192Y00122D01*
X15212Y00050D01*
X15002Y00050D01*
X15011Y00059D01*
X15049Y00150D01*
X15049Y00213D01*
X15122Y00192D01*
X15429Y00500D01*
X15122Y00808D01*
X15049Y00788D01*
X15049Y00849D01*
X15011Y00941D01*
X14941Y01011D01*
X14850Y01049D01*
X14751Y01049D01*
X14151Y01049D01*
X14059Y01011D01*
X13989Y00941D01*
X13951Y00850D01*
X13951Y00751D01*
X13951Y00151D01*
X13989Y00059D01*
X13998Y00050D01*
X13326Y00050D01*
X13465Y00189D01*
X13549Y00391D01*
X13549Y00609D01*
X13465Y00811D01*
X13311Y00965D01*
X13109Y01049D01*
X13049Y01049D01*
X13049Y02791D01*
X13049Y03009D01*
X12965Y03211D01*
X12811Y03365D01*
X12609Y03449D01*
X12391Y03449D01*
X12189Y03365D01*
X12035Y03211D01*
X11951Y03009D01*
X11951Y02791D01*
X12035Y02589D01*
X12189Y02435D01*
X12391Y02351D01*
X12609Y02351D01*
X12811Y02435D01*
X12965Y02589D01*
X13049Y02791D01*
X13049Y01049D01*
X12891Y01049D01*
X12689Y00965D01*
X12549Y00825D01*
X12549Y00849D01*
X12511Y00941D01*
X12441Y01011D01*
X12350Y01049D01*
X12251Y01049D01*
X11651Y01049D01*
X11559Y01011D01*
X11489Y00941D01*
X11451Y00850D01*
X11451Y00751D01*
X11451Y00151D01*
X11489Y00059D01*
X11498Y00050D01*
X10826Y00050D01*
X10965Y00189D01*
X11049Y00391D01*
X11049Y00609D01*
X10965Y00811D01*
X10811Y00965D01*
X10609Y01049D01*
X10549Y01049D01*
X10549Y02791D01*
X10549Y03009D01*
X10465Y03211D01*
X10311Y03365D01*
X10109Y03449D01*
X09891Y03449D01*
X09689Y03365D01*
X09535Y03211D01*
X09451Y03009D01*
X09451Y02791D01*
X09535Y02589D01*
X09689Y02435D01*
X09891Y02351D01*
X10109Y02351D01*
X10311Y02435D01*
X10465Y02589D01*
X10549Y02791D01*
X10549Y01049D01*
X10391Y01049D01*
X10189Y00965D01*
X10049Y00825D01*
X10049Y00849D01*
X10011Y00941D01*
X09941Y01011D01*
X09850Y01049D01*
X09751Y01049D01*
X09151Y01049D01*
X09059Y01011D01*
X08989Y00941D01*
X08951Y00850D01*
X08951Y00751D01*
X08951Y00151D01*
X08989Y00059D01*
X08998Y00050D01*
X08326Y00050D01*
X08465Y00189D01*
X08549Y00391D01*
X08549Y00609D01*
X08465Y00811D01*
X08311Y00965D01*
X08109Y01049D01*
X08080Y01049D01*
X08080Y08684D01*
X08080Y08915D01*
X07992Y09128D01*
X07829Y09291D01*
X07616Y09380D01*
X07385Y09380D01*
X07172Y09292D01*
X07009Y09129D01*
X07000Y09109D01*
X06992Y09128D01*
X06829Y09291D01*
X06616Y09380D01*
X06385Y09380D01*
X06172Y09292D01*
X06009Y09129D01*
X05920Y08916D01*
X05920Y08685D01*
X06008Y08472D01*
X06171Y08309D01*
X06384Y08220D01*
X06615Y08220D01*
X06828Y08308D01*
X06991Y08471D01*
X06999Y08492D01*
X07008Y08472D01*
X07171Y08309D01*
X07384Y08220D01*
X07615Y08220D01*
X07828Y08308D01*
X07991Y08471D01*
X08080Y08684D01*
X08080Y01049D01*
X08025Y01049D01*
X08025Y03895D01*
X08025Y04104D01*
X08025Y05895D01*
X08025Y06104D01*
X07945Y06297D01*
X07798Y06445D01*
X07605Y06525D01*
X07396Y06525D01*
X07203Y06445D01*
X07055Y06298D01*
X06975Y06105D01*
X06975Y05896D01*
X07055Y05703D01*
X07202Y05555D01*
X07395Y05475D01*
X07604Y05475D01*
X07797Y05555D01*
X07945Y05702D01*
X08025Y05895D01*
X08025Y04104D01*
X07945Y04297D01*
X07798Y04445D01*
X07605Y04525D01*
X07396Y04525D01*
X07203Y04445D01*
X07055Y04298D01*
X06975Y04105D01*
X06975Y03896D01*
X07055Y03703D01*
X07202Y03555D01*
X07395Y03475D01*
X07604Y03475D01*
X07797Y03555D01*
X07945Y03702D01*
X08025Y03895D01*
X08025Y01049D01*
X07891Y01049D01*
X07689Y00965D01*
X07535Y00811D01*
X07500Y00727D01*
X07465Y00811D01*
X07311Y00965D01*
X07109Y01049D01*
X06945Y01049D01*
X06549Y01445D01*
X06549Y02891D01*
X06549Y03109D01*
X06543Y03124D01*
X06543Y06921D01*
X06532Y07134D01*
X06472Y07281D01*
X06378Y07308D01*
X06308Y07238D01*
X06308Y07378D01*
X06281Y07472D01*
X06079Y07543D01*
X05866Y07532D01*
X05719Y07472D01*
X05692Y07378D01*
X06000Y07071D01*
X06308Y07378D01*
X06308Y07238D01*
X06071Y07000D01*
X06378Y06692D01*
X06472Y06719D01*
X06543Y06921D01*
X06543Y03124D01*
X06465Y03311D01*
X06311Y03465D01*
X06308Y03467D01*
X06308Y06622D01*
X06000Y06929D01*
X05929Y06859D01*
X05929Y07000D01*
X05622Y07308D01*
X05528Y07281D01*
X05457Y07079D01*
X05468Y06866D01*
X05528Y06719D01*
X05622Y06692D01*
X05929Y07000D01*
X05929Y06859D01*
X05692Y06622D01*
X05719Y06528D01*
X05921Y06457D01*
X06134Y06468D01*
X06281Y06528D01*
X06308Y06622D01*
X06308Y03467D01*
X06109Y03549D01*
X05891Y03549D01*
X05689Y03465D01*
X05535Y03311D01*
X05451Y03109D01*
X05451Y02891D01*
X05535Y02689D01*
X05689Y02535D01*
X05891Y02451D01*
X06109Y02451D01*
X06311Y02535D01*
X06465Y02689D01*
X06549Y02891D01*
X06549Y01445D01*
X06247Y01747D01*
X06134Y01823D01*
X06000Y01850D01*
X05049Y01850D01*
X05049Y06891D01*
X05049Y07109D01*
X04965Y07311D01*
X04811Y07465D01*
X04609Y07549D01*
X04391Y07549D01*
X04308Y07515D01*
X04308Y09122D01*
X04000Y09429D01*
X03692Y09122D01*
X03719Y09028D01*
X03921Y08957D01*
X04134Y08968D01*
X04281Y09028D01*
X04308Y09122D01*
X04308Y07515D01*
X04189Y07465D01*
X04035Y07311D01*
X03951Y07109D01*
X03951Y06891D01*
X04035Y06689D01*
X04189Y06535D01*
X04391Y06451D01*
X04609Y06451D01*
X04811Y06535D01*
X04965Y06689D01*
X05049Y06891D01*
X05049Y01850D01*
X05043Y01850D01*
X05043Y02921D01*
X05032Y03134D01*
X04972Y03281D01*
X04878Y03308D01*
X04808Y03238D01*
X04808Y03378D01*
X04781Y03472D01*
X04579Y03543D01*
X04366Y03532D01*
X04219Y03472D01*
X04192Y03378D01*
X04500Y03071D01*
X04808Y03378D01*
X04808Y03238D01*
X04571Y03000D01*
X04878Y02692D01*
X04972Y02719D01*
X05043Y02921D01*
X05043Y01850D01*
X05000Y01850D01*
X04866Y01823D01*
X04808Y01785D01*
X04808Y02622D01*
X04500Y02929D01*
X04429Y02859D01*
X04429Y03000D01*
X04122Y03308D01*
X04028Y03281D01*
X03957Y03079D01*
X03968Y02866D01*
X04028Y02719D01*
X04122Y02692D01*
X04429Y03000D01*
X04429Y02859D01*
X04192Y02622D01*
X04219Y02528D01*
X04421Y02457D01*
X04634Y02468D01*
X04781Y02528D01*
X04808Y02622D01*
X04808Y01785D01*
X04752Y01747D01*
X04253Y01247D01*
X04177Y01134D01*
X04150Y01000D01*
X04150Y00926D01*
X04035Y00811D01*
X03997Y00720D01*
X03972Y00781D01*
X03878Y00808D01*
X03808Y00738D01*
X03808Y00878D01*
X03781Y00972D01*
X03579Y01043D01*
X03366Y01032D01*
X03219Y00972D01*
X03192Y00878D01*
X03500Y00571D01*
X03808Y00878D01*
X03808Y00738D01*
X03571Y00500D01*
X03878Y00192D01*
X03972Y00219D01*
X03995Y00285D01*
X04035Y00189D01*
X04174Y00050D01*
X03787Y00050D01*
X03808Y00122D01*
X03500Y00429D01*
X03192Y00122D01*
X03212Y00050D01*
X03002Y00050D01*
X03011Y00059D01*
X03049Y00150D01*
X03049Y00213D01*
X03122Y00192D01*
X03429Y00500D01*
X03122Y00808D01*
X03049Y00788D01*
X03049Y00849D01*
X03011Y00941D01*
X02941Y01011D01*
X02850Y01049D01*
X02751Y01049D01*
X02151Y01049D01*
X02059Y01011D01*
X01989Y00941D01*
X01951Y00850D01*
X01222Y00850D01*
X01115Y00957D01*
X01009Y01002D01*
X01116Y01045D01*
X01147Y01077D01*
X01189Y01035D01*
X01391Y00951D01*
X01609Y00951D01*
X01811Y01035D01*
X01965Y01189D01*
X02049Y01391D01*
X02049Y01609D01*
X01965Y01811D01*
X01825Y01951D01*
X01849Y01951D01*
X01941Y01989D01*
X02011Y02059D01*
X02049Y02150D01*
X02049Y02249D01*
X02049Y02849D01*
X02011Y02941D01*
X01941Y03011D01*
X01850Y03049D01*
X01751Y03049D01*
X01151Y03049D01*
X01059Y03011D01*
X01037Y02990D01*
X01009Y03002D01*
X01116Y03045D01*
X01267Y03196D01*
X01349Y03393D01*
X01349Y03606D01*
X01268Y03803D01*
X01117Y03954D01*
X01006Y04000D01*
X01116Y04045D01*
X01267Y04196D01*
X01349Y04393D01*
X01349Y04606D01*
X01268Y04803D01*
X01117Y04954D01*
X01006Y05000D01*
X01035Y05013D01*
X01059Y04989D01*
X01150Y04951D01*
X01249Y04951D01*
X01849Y04951D01*
X01941Y04989D01*
X02011Y05059D01*
X02049Y05150D01*
X02049Y05249D01*
X02049Y05849D01*
X02011Y05941D01*
X01941Y06011D01*
X01850Y06049D01*
X01751Y06049D01*
X01151Y06049D01*
X01059Y06011D01*
X01035Y05988D01*
X01006Y06000D01*
X01116Y06045D01*
X01267Y06196D01*
X01349Y06393D01*
X01349Y06606D01*
X01268Y06803D01*
X01117Y06954D01*
X01006Y07000D01*
X01116Y07045D01*
X01147Y07077D01*
X01189Y07035D01*
X01391Y06951D01*
X01609Y06951D01*
X01811Y07035D01*
X01965Y07189D01*
X02049Y07391D01*
X02049Y07609D01*
X01965Y07811D01*
X01825Y07951D01*
X01849Y07951D01*
X01941Y07989D01*
X02011Y08059D01*
X02049Y08150D01*
X02049Y08249D01*
X02049Y08849D01*
X02011Y08941D01*
X01941Y09011D01*
X01850Y09049D01*
X01751Y09049D01*
X01151Y09049D01*
X01059Y09011D01*
X01035Y08988D01*
X01009Y08999D01*
X01096Y09033D01*
X01252Y09183D01*
X01325Y09366D01*
X01278Y09450D01*
X00600Y09450D01*
X00550Y09450D01*
X00450Y09450D01*
X00450Y09550D01*
X00550Y09550D01*
X00600Y09550D01*
X01278Y09550D01*
X01325Y09634D01*
X01252Y09817D01*
X01113Y09950D01*
X02498Y09950D01*
X02489Y09941D01*
X02451Y09850D01*
X02451Y09751D01*
X02451Y09151D01*
X02489Y09059D01*
X02559Y08989D01*
X02650Y08951D01*
X02749Y08951D01*
X03349Y08951D01*
X03441Y08989D01*
X03511Y09059D01*
X03549Y09150D01*
X03549Y09213D01*
X03622Y09192D01*
X03929Y09500D01*
X03622Y09808D01*
X03549Y09788D01*
X03549Y09849D01*
X03511Y09941D01*
X03502Y09950D01*
X03712Y09950D01*
X03692Y09878D01*
X04000Y09571D01*
X04308Y09878D01*
X04287Y09950D01*
X04674Y09950D01*
X04535Y09811D01*
X04497Y09720D01*
X04472Y09781D01*
X04378Y09808D01*
X04071Y09500D01*
X04378Y09192D01*
X04472Y09219D01*
X04495Y09285D01*
X04535Y09189D01*
X04689Y09035D01*
X04891Y08951D01*
X05109Y08951D01*
X05311Y09035D01*
X05465Y09189D01*
X05549Y09391D01*
X05549Y09609D01*
X05465Y09811D01*
X05326Y09950D01*
X13998Y09950D01*
X13989Y09941D01*
X13951Y09850D01*
X13951Y09751D01*
X13950Y09612D01*
X14012Y09550D01*
X14400Y09550D01*
X14450Y09550D01*
X14550Y09550D01*
X14550Y09450D01*
X14550Y09400D01*
X14550Y09012D01*
X14612Y08950D01*
X14849Y08951D01*
X14941Y08989D01*
X15011Y09059D01*
X15049Y09150D01*
X15049Y09175D01*
X15150Y09074D01*
X15150Y05500D01*
X15177Y05366D01*
X15253Y05253D01*
X17252Y03253D01*
X17253Y03253D01*
X17366Y03177D01*
X17500Y03150D01*
X17779Y03150D01*
X17883Y03046D01*
X17993Y03001D01*
X17884Y02955D01*
X17733Y02804D01*
X17651Y02607D01*
X17651Y02394D01*
X17732Y02197D01*
X17883Y02046D01*
X17993Y02001D01*
X17993Y02001D01*
G37*
G54D19*
X17993Y02001D02*
X17884Y01955D01*
X17861Y01933D01*
X14450Y05344D01*
X14450Y09012D01*
X14450Y09450D01*
X14012Y09450D01*
X13950Y09388D01*
X13951Y09249D01*
X13951Y09150D01*
X13989Y09059D01*
X14059Y08989D01*
X14151Y08951D01*
X14388Y08950D01*
X14450Y09012D01*
X14450Y05344D01*
X13547Y06247D01*
X13434Y06323D01*
X13300Y06350D01*
X13049Y06350D01*
X13049Y08791D01*
X13049Y09009D01*
X12965Y09211D01*
X12811Y09365D01*
X12609Y09449D01*
X12391Y09449D01*
X12189Y09365D01*
X12035Y09211D01*
X11951Y09009D01*
X11951Y08791D01*
X12035Y08589D01*
X12189Y08435D01*
X12391Y08351D01*
X12609Y08351D01*
X12811Y08435D01*
X12965Y08589D01*
X13049Y08791D01*
X13049Y06350D01*
X13043Y06350D01*
X13043Y06821D01*
X13032Y07034D01*
X12972Y07181D01*
X12878Y07208D01*
X12808Y07138D01*
X12808Y07278D01*
X12781Y07372D01*
X12579Y07443D01*
X12366Y07432D01*
X12219Y07372D01*
X12192Y07278D01*
X12500Y06971D01*
X12808Y07278D01*
X12808Y07138D01*
X12571Y06900D01*
X12878Y06592D01*
X12972Y06619D01*
X13043Y06821D01*
X13043Y06350D01*
X12808Y06350D01*
X12808Y06522D01*
X12500Y06829D01*
X12429Y06759D01*
X12429Y06900D01*
X12122Y07208D01*
X12028Y07181D01*
X11957Y06979D01*
X11968Y06766D01*
X12028Y06619D01*
X12122Y06592D01*
X12429Y06900D01*
X12429Y06759D01*
X12192Y06522D01*
X12219Y06428D01*
X12421Y06357D01*
X12634Y06368D01*
X12781Y06428D01*
X12808Y06522D01*
X12808Y06350D01*
X11900Y06350D01*
X11766Y06323D01*
X11652Y06247D01*
X10655Y05250D01*
X10549Y05250D01*
X10549Y08791D01*
X10549Y09009D01*
X10465Y09211D01*
X10311Y09365D01*
X10109Y09449D01*
X09891Y09449D01*
X09689Y09365D01*
X09535Y09211D01*
X09451Y09009D01*
X09451Y08791D01*
X09535Y08589D01*
X09689Y08435D01*
X09891Y08351D01*
X10109Y08351D01*
X10311Y08435D01*
X10465Y08589D01*
X10549Y08791D01*
X10549Y05250D01*
X10543Y05250D01*
X10543Y06821D01*
X10532Y07034D01*
X10472Y07181D01*
X10378Y07208D01*
X10308Y07138D01*
X10308Y07278D01*
X10281Y07372D01*
X10079Y07443D01*
X09866Y07432D01*
X09719Y07372D01*
X09692Y07278D01*
X10000Y06971D01*
X10308Y07278D01*
X10308Y07138D01*
X10071Y06900D01*
X10378Y06592D01*
X10472Y06619D01*
X10543Y06821D01*
X10543Y05250D01*
X10426Y05250D01*
X10311Y05365D01*
X10308Y05367D01*
X10308Y06522D01*
X10000Y06829D01*
X09929Y06759D01*
X09929Y06900D01*
X09622Y07208D01*
X09528Y07181D01*
X09457Y06979D01*
X09468Y06766D01*
X09528Y06619D01*
X09622Y06592D01*
X09929Y06900D01*
X09929Y06759D01*
X09692Y06522D01*
X09719Y06428D01*
X09921Y06357D01*
X10134Y06368D01*
X10281Y06428D01*
X10308Y06522D01*
X10308Y05367D01*
X10109Y05449D01*
X09891Y05449D01*
X09689Y05365D01*
X09535Y05211D01*
X09451Y05009D01*
X09451Y04791D01*
X09535Y04589D01*
X09689Y04435D01*
X09891Y04351D01*
X10109Y04351D01*
X10311Y04435D01*
X10426Y04550D01*
X10800Y04550D01*
X10800Y04551D01*
X10934Y04577D01*
X11047Y04653D01*
X12044Y05650D01*
X13155Y05650D01*
X13569Y05236D01*
X13500Y05250D01*
X12926Y05250D01*
X12811Y05365D01*
X12609Y05449D01*
X12391Y05449D01*
X12189Y05365D01*
X12035Y05211D01*
X11951Y05009D01*
X11951Y04791D01*
X12035Y04589D01*
X12189Y04435D01*
X12391Y04351D01*
X12609Y04351D01*
X12811Y04435D01*
X12926Y04550D01*
X13355Y04550D01*
X14480Y03425D01*
X14416Y03425D01*
X14260Y03361D01*
X14140Y03241D01*
X14075Y03085D01*
X14075Y02916D01*
X14139Y02760D01*
X14259Y02640D01*
X14415Y02575D01*
X14430Y02575D01*
X16114Y00891D01*
X16035Y00811D01*
X15997Y00720D01*
X15972Y00781D01*
X15878Y00808D01*
X15808Y00738D01*
X15808Y00878D01*
X15781Y00972D01*
X15579Y01043D01*
X15366Y01032D01*
X15219Y00972D01*
X15192Y00878D01*
X15500Y00571D01*
X15808Y00878D01*
X15808Y00738D01*
X15571Y00500D01*
X15878Y00192D01*
X15972Y00219D01*
X15995Y00285D01*
X16035Y00189D01*
X16174Y00050D01*
X15787Y00050D01*
X15808Y00122D01*
X15500Y00429D01*
X15192Y00122D01*
X15212Y00050D01*
X15002Y00050D01*
X15011Y00059D01*
X15049Y00150D01*
X15049Y00213D01*
X15122Y00192D01*
X15429Y00500D01*
X15122Y00808D01*
X15049Y00788D01*
X15049Y00849D01*
X15011Y00941D01*
X14941Y01011D01*
X14850Y01049D01*
X14751Y01049D01*
X14151Y01049D01*
X14059Y01011D01*
X13989Y00941D01*
X13951Y00850D01*
X13951Y00751D01*
X13951Y00151D01*
X13989Y00059D01*
X13998Y00050D01*
X13326Y00050D01*
X13465Y00189D01*
X13549Y00391D01*
X13549Y00609D01*
X13465Y00811D01*
X13311Y00965D01*
X13109Y01049D01*
X13049Y01049D01*
X13049Y02791D01*
X13049Y03009D01*
X12965Y03211D01*
X12811Y03365D01*
X12609Y03449D01*
X12391Y03449D01*
X12189Y03365D01*
X12035Y03211D01*
X11951Y03009D01*
X11951Y02791D01*
X12035Y02589D01*
X12189Y02435D01*
X12391Y02351D01*
X12609Y02351D01*
X12811Y02435D01*
X12965Y02589D01*
X13049Y02791D01*
X13049Y01049D01*
X12891Y01049D01*
X12689Y00965D01*
X12549Y00825D01*
X12549Y00849D01*
X12511Y00941D01*
X12441Y01011D01*
X12350Y01049D01*
X12251Y01049D01*
X11651Y01049D01*
X11559Y01011D01*
X11489Y00941D01*
X11451Y00850D01*
X11451Y00751D01*
X11451Y00151D01*
X11489Y00059D01*
X11498Y00050D01*
X10826Y00050D01*
X10965Y00189D01*
X11049Y00391D01*
X11049Y00609D01*
X10965Y00811D01*
X10811Y00965D01*
X10609Y01049D01*
X10549Y01049D01*
X10549Y02791D01*
X10549Y03009D01*
X10465Y03211D01*
X10311Y03365D01*
X10109Y03449D01*
X09891Y03449D01*
X09689Y03365D01*
X09535Y03211D01*
X09451Y03009D01*
X09451Y02791D01*
X09535Y02589D01*
X09689Y02435D01*
X09891Y02351D01*
X10109Y02351D01*
X10311Y02435D01*
X10465Y02589D01*
X10549Y02791D01*
X10549Y01049D01*
X10391Y01049D01*
X10189Y00965D01*
X10049Y00825D01*
X10049Y00849D01*
X10011Y00941D01*
X09941Y01011D01*
X09850Y01049D01*
X09751Y01049D01*
X09151Y01049D01*
X09059Y01011D01*
X08989Y00941D01*
X08951Y00850D01*
X08951Y00751D01*
X08951Y00151D01*
X08989Y00059D01*
X08998Y00050D01*
X08326Y00050D01*
X08465Y00189D01*
X08549Y00391D01*
X08549Y00609D01*
X08465Y00811D01*
X08311Y00965D01*
X08109Y01049D01*
X08080Y01049D01*
X08080Y08684D01*
X08080Y08915D01*
X07992Y09128D01*
X07829Y09291D01*
X07616Y09380D01*
X07385Y09380D01*
X07172Y09292D01*
X07009Y09129D01*
X07000Y09109D01*
X06992Y09128D01*
X06829Y09291D01*
X06616Y09380D01*
X06385Y09380D01*
X06172Y09292D01*
X06009Y09129D01*
X05920Y08916D01*
X05920Y08685D01*
X06008Y08472D01*
X06171Y08309D01*
X06384Y08220D01*
X06615Y08220D01*
X06828Y08308D01*
X06991Y08471D01*
X06999Y08492D01*
X07008Y08472D01*
X07171Y08309D01*
X07384Y08220D01*
X07615Y08220D01*
X07828Y08308D01*
X07991Y08471D01*
X08080Y08684D01*
X08080Y01049D01*
X08025Y01049D01*
X08025Y03895D01*
X08025Y04104D01*
X08025Y05895D01*
X08025Y06104D01*
X07945Y06297D01*
X07798Y06445D01*
X07605Y06525D01*
X07396Y06525D01*
X07203Y06445D01*
X07055Y06298D01*
X06975Y06105D01*
X06975Y05896D01*
X07055Y05703D01*
X07202Y05555D01*
X07395Y05475D01*
X07604Y05475D01*
X07797Y05555D01*
X07945Y05702D01*
X08025Y05895D01*
X08025Y04104D01*
X07945Y04297D01*
X07798Y04445D01*
X07605Y04525D01*
X07396Y04525D01*
X07203Y04445D01*
X07055Y04298D01*
X06975Y04105D01*
X06975Y03896D01*
X07055Y03703D01*
X07202Y03555D01*
X07395Y03475D01*
X07604Y03475D01*
X07797Y03555D01*
X07945Y03702D01*
X08025Y03895D01*
X08025Y01049D01*
X07891Y01049D01*
X07689Y00965D01*
X07535Y00811D01*
X07500Y00727D01*
X07465Y00811D01*
X07311Y00965D01*
X07109Y01049D01*
X06945Y01049D01*
X06549Y01445D01*
X06549Y02891D01*
X06549Y03109D01*
X06543Y03124D01*
X06543Y06921D01*
X06532Y07134D01*
X06472Y07281D01*
X06378Y07308D01*
X06308Y07238D01*
X06308Y07378D01*
X06281Y07472D01*
X06079Y07543D01*
X05866Y07532D01*
X05719Y07472D01*
X05692Y07378D01*
X06000Y07071D01*
X06308Y07378D01*
X06308Y07238D01*
X06071Y07000D01*
X06378Y06692D01*
X06472Y06719D01*
X06543Y06921D01*
X06543Y03124D01*
X06465Y03311D01*
X06311Y03465D01*
X06308Y03467D01*
X06308Y06622D01*
X06000Y06929D01*
X05929Y06859D01*
X05929Y07000D01*
X05622Y07308D01*
X05528Y07281D01*
X05457Y07079D01*
X05468Y06866D01*
X05528Y06719D01*
X05622Y06692D01*
X05929Y07000D01*
X05929Y06859D01*
X05692Y06622D01*
X05719Y06528D01*
X05921Y06457D01*
X06134Y06468D01*
X06281Y06528D01*
X06308Y06622D01*
X06308Y03467D01*
X06109Y03549D01*
X05891Y03549D01*
X05689Y03465D01*
X05535Y03311D01*
X05451Y03109D01*
X05451Y02891D01*
X05535Y02689D01*
X05689Y02535D01*
X05891Y02451D01*
X06109Y02451D01*
X06311Y02535D01*
X06465Y02689D01*
X06549Y02891D01*
X06549Y01445D01*
X06247Y01747D01*
X06134Y01823D01*
X06000Y01850D01*
X05049Y01850D01*
X05049Y06891D01*
X05049Y07109D01*
X04965Y07311D01*
X04811Y07465D01*
X04609Y07549D01*
X04391Y07549D01*
X04308Y07515D01*
X04308Y09122D01*
X04000Y09429D01*
X03692Y09122D01*
X03719Y09028D01*
X03921Y08957D01*
X04134Y08968D01*
X04281Y09028D01*
X04308Y09122D01*
X04308Y07515D01*
X04189Y07465D01*
X04035Y07311D01*
X03951Y07109D01*
X03951Y06891D01*
X04035Y06689D01*
X04189Y06535D01*
X04391Y06451D01*
X04609Y06451D01*
X04811Y06535D01*
X04965Y06689D01*
X05049Y06891D01*
X05049Y01850D01*
X05043Y01850D01*
X05043Y02921D01*
X05032Y03134D01*
X04972Y03281D01*
X04878Y03308D01*
X04808Y03238D01*
X04808Y03378D01*
X04781Y03472D01*
X04579Y03543D01*
X04366Y03532D01*
X04219Y03472D01*
X04192Y03378D01*
X04500Y03071D01*
X04808Y03378D01*
X04808Y03238D01*
X04571Y03000D01*
X04878Y02692D01*
X04972Y02719D01*
X05043Y02921D01*
X05043Y01850D01*
X05000Y01850D01*
X04866Y01823D01*
X04808Y01785D01*
X04808Y02622D01*
X04500Y02929D01*
X04429Y02859D01*
X04429Y03000D01*
X04122Y03308D01*
X04028Y03281D01*
X03957Y03079D01*
X03968Y02866D01*
X04028Y02719D01*
X04122Y02692D01*
X04429Y03000D01*
X04429Y02859D01*
X04192Y02622D01*
X04219Y02528D01*
X04421Y02457D01*
X04634Y02468D01*
X04781Y02528D01*
X04808Y02622D01*
X04808Y01785D01*
X04752Y01747D01*
X04253Y01247D01*
X04177Y01134D01*
X04150Y01000D01*
X04150Y00926D01*
X04035Y00811D01*
X03997Y00720D01*
X03972Y00781D01*
X03878Y00808D01*
X03808Y00738D01*
X03808Y00878D01*
X03781Y00972D01*
X03579Y01043D01*
X03366Y01032D01*
X03219Y00972D01*
X03192Y00878D01*
X03500Y00571D01*
X03808Y00878D01*
X03808Y00738D01*
X03571Y00500D01*
X03878Y00192D01*
X03972Y00219D01*
X03995Y00285D01*
X04035Y00189D01*
X04174Y00050D01*
X03787Y00050D01*
X03808Y00122D01*
X03500Y00429D01*
X03192Y00122D01*
X03212Y00050D01*
X03002Y00050D01*
X03011Y00059D01*
X03049Y00150D01*
X03049Y00213D01*
X03122Y00192D01*
X03429Y00500D01*
X03122Y00808D01*
X03049Y00788D01*
X03049Y00849D01*
X03011Y00941D01*
X02941Y01011D01*
X02850Y01049D01*
X02751Y01049D01*
X02151Y01049D01*
X02059Y01011D01*
X01989Y00941D01*
X01951Y00850D01*
X01222Y00850D01*
X01115Y00957D01*
X01009Y01002D01*
X01116Y01045D01*
X01147Y01077D01*
X01189Y01035D01*
X01391Y00951D01*
X01609Y00951D01*
X01811Y01035D01*
X01965Y01189D01*
X02049Y01391D01*
X02049Y01609D01*
X01965Y01811D01*
X01825Y01951D01*
X01849Y01951D01*
X01941Y01989D01*
X02011Y02059D01*
X02049Y02150D01*
X02049Y02249D01*
X02049Y02849D01*
X02011Y02941D01*
X01941Y03011D01*
X01850Y03049D01*
X01751Y03049D01*
X01151Y03049D01*
X01059Y03011D01*
X01037Y02990D01*
X01009Y03002D01*
X01116Y03045D01*
X01267Y03196D01*
X01349Y03393D01*
X01349Y03606D01*
X01268Y03803D01*
X01117Y03954D01*
X01006Y04000D01*
X01116Y04045D01*
X01267Y04196D01*
X01349Y04393D01*
X01349Y04606D01*
X01268Y04803D01*
X01117Y04954D01*
X01006Y05000D01*
X01035Y05013D01*
X01059Y04989D01*
X01150Y04951D01*
X01249Y04951D01*
X01849Y04951D01*
X01941Y04989D01*
X02011Y05059D01*
X02049Y05150D01*
X02049Y05249D01*
X02049Y05849D01*
X02011Y05941D01*
X01941Y06011D01*
X01850Y06049D01*
X01751Y06049D01*
X01151Y06049D01*
X01059Y06011D01*
X01035Y05988D01*
X01006Y06000D01*
X01116Y06045D01*
X01267Y06196D01*
X01349Y06393D01*
X01349Y06606D01*
X01268Y06803D01*
X01117Y06954D01*
X01006Y07000D01*
X01116Y07045D01*
X01147Y07077D01*
X01189Y07035D01*
X01391Y06951D01*
X01609Y06951D01*
X01811Y07035D01*
X01965Y07189D01*
X02049Y07391D01*
X02049Y07609D01*
X01965Y07811D01*
X01825Y07951D01*
X01849Y07951D01*
X01941Y07989D01*
X02011Y08059D01*
X02049Y08150D01*
X02049Y08249D01*
X02049Y08849D01*
X02011Y08941D01*
X01941Y09011D01*
X01850Y09049D01*
X01751Y09049D01*
X01151Y09049D01*
X01059Y09011D01*
X01035Y08988D01*
X01009Y08999D01*
X01096Y09033D01*
X01252Y09183D01*
X01325Y09366D01*
X01278Y09450D01*
X00600Y09450D01*
X00550Y09450D01*
X00450Y09450D01*
X00450Y09550D01*
X00550Y09550D01*
X00600Y09550D01*
X01278Y09550D01*
X01325Y09634D01*
X01252Y09817D01*
X01113Y09950D01*
X02498Y09950D01*
X02489Y09941D01*
X02451Y09850D01*
X02451Y09751D01*
X02451Y09151D01*
X02489Y09059D01*
X02559Y08989D01*
X02650Y08951D01*
X02749Y08951D01*
X03349Y08951D01*
X03441Y08989D01*
X03511Y09059D01*
X03549Y09150D01*
X03549Y09213D01*
X03622Y09192D01*
X03929Y09500D01*
X03622Y09808D01*
X03549Y09788D01*
X03549Y09849D01*
X03511Y09941D01*
X03502Y09950D01*
X03712Y09950D01*
X03692Y09878D01*
X04000Y09571D01*
X04308Y09878D01*
X04287Y09950D01*
X04674Y09950D01*
X04535Y09811D01*
X04497Y09720D01*
X04472Y09781D01*
X04378Y09808D01*
X04071Y09500D01*
X04378Y09192D01*
X04472Y09219D01*
X04495Y09285D01*
X04535Y09189D01*
X04689Y09035D01*
X04891Y08951D01*
X05109Y08951D01*
X05311Y09035D01*
X05465Y09189D01*
X05549Y09391D01*
X05549Y09609D01*
X05465Y09811D01*
X05326Y09950D01*
X13998Y09950D01*
X13989Y09941D01*
X13951Y09850D01*
X13951Y09751D01*
X13950Y09612D01*
X14012Y09550D01*
X14400Y09550D01*
X14450Y09550D01*
X14550Y09550D01*
X14550Y09450D01*
X14550Y09400D01*
X14550Y09012D01*
X14612Y08950D01*
X14849Y08951D01*
X14941Y08989D01*
X15011Y09059D01*
X15049Y09150D01*
X15049Y09175D01*
X15150Y09074D01*
X15150Y05500D01*
X15177Y05366D01*
X15253Y05253D01*
X17252Y03253D01*
X17253Y03253D01*
X17366Y03177D01*
X17500Y03150D01*
X17779Y03150D01*
X17883Y03046D01*
X17993Y03001D01*
X17884Y02955D01*
X17733Y02804D01*
X17651Y02607D01*
X17651Y02394D01*
X17732Y02197D01*
X17883Y02046D01*
X17993Y02001D01*
M02*
