G04 (created by PCBNEW-RS274X (2011-nov-30)-testing) date Sun 24 Jun 2012 01:39:46 PM CEST*
%MOIN*%
G04 Gerber Fmt 3.4, Leading zero omitted, Abs format*
%FSLAX34Y34*%
G01*
G70*
G90*
G04 APERTURE LIST*
%ADD10C,0.006*%
%ADD11C,0.06*%
%ADD12C,0.066*%
%ADD13R,0.06X0.06*%
%ADD14C,0.055*%
%ADD15O,0.1187X0.0592*%
%ADD16O,0.1187X0.06*%
%ADD17C,0.035*%
%ADD18C,0.02*%
%ADD19C,0.01*%
G04 APERTURE END LIST*
G54D10*
G54D11*
X6000Y3000D03*
X6000Y7000D03*
X4500Y7000D03*
X4500Y3000D03*
G54D12*
X7500Y8800D03*
X6500Y8800D03*
G54D11*
X12500Y8500D03*
X12500Y6500D03*
X12500Y4500D03*
X12500Y2500D03*
X10000Y8500D03*
X10000Y6500D03*
X10000Y4500D03*
X10000Y2500D03*
G54D13*
X14500Y9500D03*
G54D11*
X15500Y9500D03*
X16500Y9500D03*
X17500Y9500D03*
G54D13*
X6000Y500D03*
G54D11*
X7000Y500D03*
X8000Y500D03*
G54D13*
X14500Y500D03*
G54D11*
X15500Y500D03*
X16500Y500D03*
G54D13*
X2500Y500D03*
G54D11*
X3500Y500D03*
X4500Y500D03*
G54D13*
X9500Y500D03*
G54D11*
X10500Y500D03*
G54D13*
X12000Y500D03*
G54D11*
X13000Y500D03*
G54D13*
X3000Y9500D03*
G54D11*
X4000Y9500D03*
X5000Y9500D03*
G54D13*
X1500Y2500D03*
G54D11*
X1500Y1500D03*
G54D13*
X1500Y5500D03*
X1500Y8500D03*
G54D11*
X1500Y7500D03*
G54D14*
X7500Y4000D03*
X7500Y6000D03*
G54D15*
X500Y9500D03*
X500Y8500D03*
X500Y7500D03*
X500Y6500D03*
X500Y5500D03*
X500Y4500D03*
X500Y3500D03*
G54D16*
X500Y2500D03*
G54D15*
X500Y1500D03*
G54D16*
X500Y500D03*
G54D15*
X18500Y500D03*
X18500Y1500D03*
X18500Y2500D03*
X18500Y3500D03*
X18500Y4500D03*
X18500Y5500D03*
X18500Y6500D03*
X18500Y7500D03*
X18500Y8500D03*
X18500Y9500D03*
G54D17*
X14500Y3000D03*
G54D18*
X4500Y500D02*
X4500Y1000D01*
X6000Y1500D02*
X7000Y500D01*
X5000Y1500D02*
X6000Y1500D01*
X4500Y1000D02*
X5000Y1500D01*
X16500Y500D02*
X16500Y1000D01*
X16500Y1000D02*
X14500Y3000D01*
X12500Y4500D02*
X14000Y4500D01*
X18000Y500D02*
X18500Y500D01*
X14000Y4500D02*
X18000Y500D01*
X12000Y5500D02*
X14000Y5500D01*
X11000Y4500D02*
X12000Y5500D01*
X10000Y4500D02*
X11000Y4500D01*
X18000Y1500D02*
X18500Y1500D01*
X14000Y5500D02*
X18000Y1500D01*
X16500Y9500D02*
X16500Y5500D01*
X17500Y4500D02*
X18500Y4500D01*
X16500Y5500D02*
X17500Y4500D01*
X2500Y500D02*
X500Y500D01*
G54D19*
X2000Y500D02*
X500Y500D01*
G54D18*
X15500Y9500D02*
X15500Y5500D01*
X17500Y3500D02*
X18500Y3500D01*
X15500Y5500D02*
X17500Y3500D01*
G54D10*
G36*
X17993Y3001D02*
X17884Y2955D01*
X17733Y2804D01*
X17651Y2607D01*
X17651Y2394D01*
X17686Y2309D01*
X14450Y5545D01*
X14450Y9012D01*
X14450Y9450D01*
X14012Y9450D01*
X13950Y9388D01*
X13951Y9249D01*
X13951Y9150D01*
X13989Y9059D01*
X14059Y8989D01*
X14151Y8951D01*
X14388Y8950D01*
X14450Y9012D01*
X14450Y5545D01*
X14247Y5747D01*
X14134Y5823D01*
X14000Y5850D01*
X13053Y5850D01*
X13053Y6419D01*
X13049Y6499D01*
X13049Y8391D01*
X13049Y8609D01*
X12965Y8811D01*
X12811Y8965D01*
X12609Y9049D01*
X12391Y9049D01*
X12189Y8965D01*
X12035Y8811D01*
X11951Y8609D01*
X11951Y8391D01*
X12035Y8189D01*
X12189Y8035D01*
X12391Y7951D01*
X12609Y7951D01*
X12811Y8035D01*
X12965Y8189D01*
X13049Y8391D01*
X13049Y6499D01*
X13042Y6637D01*
X12980Y6786D01*
X12885Y6815D01*
X12815Y6745D01*
X12815Y6885D01*
X12786Y6980D01*
X12581Y7053D01*
X12363Y7042D01*
X12214Y6980D01*
X12185Y6885D01*
X12500Y6571D01*
X12815Y6885D01*
X12815Y6745D01*
X12571Y6500D01*
X12885Y6185D01*
X12980Y6214D01*
X13053Y6419D01*
X13053Y5850D01*
X12815Y5850D01*
X12815Y6115D01*
X12500Y6429D01*
X12429Y6359D01*
X12429Y6500D01*
X12115Y6815D01*
X12020Y6786D01*
X11947Y6581D01*
X11958Y6363D01*
X12020Y6214D01*
X12115Y6185D01*
X12429Y6500D01*
X12429Y6359D01*
X12185Y6115D01*
X12214Y6020D01*
X12419Y5947D01*
X12637Y5958D01*
X12786Y6020D01*
X12815Y6115D01*
X12815Y5850D01*
X12000Y5850D01*
X11866Y5823D01*
X11752Y5747D01*
X10855Y4850D01*
X10553Y4850D01*
X10553Y6419D01*
X10549Y6499D01*
X10549Y8391D01*
X10549Y8609D01*
X10465Y8811D01*
X10311Y8965D01*
X10109Y9049D01*
X9891Y9049D01*
X9689Y8965D01*
X9535Y8811D01*
X9451Y8609D01*
X9451Y8391D01*
X9535Y8189D01*
X9689Y8035D01*
X9891Y7951D01*
X10109Y7951D01*
X10311Y8035D01*
X10465Y8189D01*
X10549Y8391D01*
X10549Y6499D01*
X10542Y6637D01*
X10480Y6786D01*
X10385Y6815D01*
X10315Y6745D01*
X10315Y6885D01*
X10286Y6980D01*
X10081Y7053D01*
X9863Y7042D01*
X9714Y6980D01*
X9685Y6885D01*
X10000Y6571D01*
X10315Y6885D01*
X10315Y6745D01*
X10071Y6500D01*
X10385Y6185D01*
X10480Y6214D01*
X10553Y6419D01*
X10553Y4850D01*
X10426Y4850D01*
X10315Y4961D01*
X10315Y6115D01*
X10000Y6429D01*
X9929Y6359D01*
X9929Y6500D01*
X9615Y6815D01*
X9520Y6786D01*
X9447Y6581D01*
X9458Y6363D01*
X9520Y6214D01*
X9615Y6185D01*
X9929Y6500D01*
X9929Y6359D01*
X9685Y6115D01*
X9714Y6020D01*
X9919Y5947D01*
X10137Y5958D01*
X10286Y6020D01*
X10315Y6115D01*
X10315Y4961D01*
X10311Y4965D01*
X10109Y5049D01*
X9891Y5049D01*
X9689Y4965D01*
X9535Y4811D01*
X9451Y4609D01*
X9451Y4391D01*
X9535Y4189D01*
X9689Y4035D01*
X9891Y3951D01*
X10109Y3951D01*
X10311Y4035D01*
X10426Y4150D01*
X11000Y4150D01*
X11000Y4151D01*
X11134Y4177D01*
X11247Y4253D01*
X12144Y5150D01*
X13855Y5150D01*
X17678Y1327D01*
X17686Y1309D01*
X14247Y4747D01*
X14134Y4823D01*
X14000Y4850D01*
X12926Y4850D01*
X12811Y4965D01*
X12609Y5049D01*
X12391Y5049D01*
X12189Y4965D01*
X12035Y4811D01*
X11951Y4609D01*
X11951Y4391D01*
X12035Y4189D01*
X12189Y4035D01*
X12391Y3951D01*
X12609Y3951D01*
X12811Y4035D01*
X12926Y4150D01*
X13855Y4150D01*
X14580Y3425D01*
X14416Y3425D01*
X14260Y3361D01*
X14140Y3241D01*
X14075Y3085D01*
X14075Y2916D01*
X14139Y2760D01*
X14259Y2640D01*
X14415Y2575D01*
X14430Y2575D01*
X16114Y891D01*
X16035Y811D01*
X16002Y733D01*
X15980Y786D01*
X15885Y815D01*
X15815Y745D01*
X15815Y885D01*
X15786Y980D01*
X15581Y1053D01*
X15363Y1042D01*
X15214Y980D01*
X15185Y885D01*
X15500Y571D01*
X15815Y885D01*
X15815Y745D01*
X15571Y500D01*
X15885Y185D01*
X15980Y214D01*
X16000Y272D01*
X16035Y189D01*
X16174Y50D01*
X15795Y50D01*
X15815Y115D01*
X15500Y429D01*
X15185Y115D01*
X15204Y50D01*
X15002Y50D01*
X15011Y59D01*
X15049Y150D01*
X15049Y206D01*
X15115Y185D01*
X15429Y500D01*
X15115Y815D01*
X15049Y795D01*
X15049Y849D01*
X15011Y941D01*
X14941Y1011D01*
X14850Y1049D01*
X14751Y1049D01*
X14151Y1049D01*
X14059Y1011D01*
X13989Y941D01*
X13951Y850D01*
X13951Y751D01*
X13951Y151D01*
X13989Y59D01*
X13998Y50D01*
X13326Y50D01*
X13465Y189D01*
X13549Y391D01*
X13549Y609D01*
X13465Y811D01*
X13311Y965D01*
X13109Y1049D01*
X13049Y1049D01*
X13049Y2391D01*
X13049Y2609D01*
X12965Y2811D01*
X12811Y2965D01*
X12609Y3049D01*
X12391Y3049D01*
X12189Y2965D01*
X12035Y2811D01*
X11951Y2609D01*
X11951Y2391D01*
X12035Y2189D01*
X12189Y2035D01*
X12391Y1951D01*
X12609Y1951D01*
X12811Y2035D01*
X12965Y2189D01*
X13049Y2391D01*
X13049Y1049D01*
X12891Y1049D01*
X12689Y965D01*
X12549Y825D01*
X12549Y849D01*
X12511Y941D01*
X12441Y1011D01*
X12350Y1049D01*
X12251Y1049D01*
X11651Y1049D01*
X11559Y1011D01*
X11489Y941D01*
X11451Y850D01*
X11451Y751D01*
X11451Y151D01*
X11489Y59D01*
X11498Y50D01*
X10826Y50D01*
X10965Y189D01*
X11049Y391D01*
X11049Y609D01*
X10965Y811D01*
X10811Y965D01*
X10609Y1049D01*
X10549Y1049D01*
X10549Y2391D01*
X10549Y2609D01*
X10465Y2811D01*
X10311Y2965D01*
X10109Y3049D01*
X9891Y3049D01*
X9689Y2965D01*
X9535Y2811D01*
X9451Y2609D01*
X9451Y2391D01*
X9535Y2189D01*
X9689Y2035D01*
X9891Y1951D01*
X10109Y1951D01*
X10311Y2035D01*
X10465Y2189D01*
X10549Y2391D01*
X10549Y1049D01*
X10391Y1049D01*
X10189Y965D01*
X10049Y825D01*
X10049Y849D01*
X10011Y941D01*
X9941Y1011D01*
X9850Y1049D01*
X9751Y1049D01*
X9151Y1049D01*
X9059Y1011D01*
X8989Y941D01*
X8951Y850D01*
X8951Y751D01*
X8951Y151D01*
X8989Y59D01*
X8998Y50D01*
X8326Y50D01*
X8465Y189D01*
X8549Y391D01*
X8549Y609D01*
X8465Y811D01*
X8311Y965D01*
X8109Y1049D01*
X8080Y1049D01*
X8080Y8684D01*
X8080Y8915D01*
X7992Y9128D01*
X7829Y9291D01*
X7616Y9380D01*
X7385Y9380D01*
X7172Y9292D01*
X7009Y9129D01*
X7000Y9109D01*
X6992Y9128D01*
X6829Y9291D01*
X6616Y9380D01*
X6385Y9380D01*
X6172Y9292D01*
X6009Y9129D01*
X5920Y8916D01*
X5920Y8685D01*
X6008Y8472D01*
X6171Y8309D01*
X6384Y8220D01*
X6615Y8220D01*
X6828Y8308D01*
X6991Y8471D01*
X6999Y8492D01*
X7008Y8472D01*
X7171Y8309D01*
X7384Y8220D01*
X7615Y8220D01*
X7828Y8308D01*
X7991Y8471D01*
X8080Y8684D01*
X8080Y1049D01*
X8025Y1049D01*
X8025Y3895D01*
X8025Y4104D01*
X8025Y5895D01*
X8025Y6104D01*
X7945Y6297D01*
X7798Y6445D01*
X7605Y6525D01*
X7396Y6525D01*
X7203Y6445D01*
X7055Y6298D01*
X6975Y6105D01*
X6975Y5896D01*
X7055Y5703D01*
X7202Y5555D01*
X7395Y5475D01*
X7604Y5475D01*
X7797Y5555D01*
X7945Y5702D01*
X8025Y5895D01*
X8025Y4104D01*
X7945Y4297D01*
X7798Y4445D01*
X7605Y4525D01*
X7396Y4525D01*
X7203Y4445D01*
X7055Y4298D01*
X6975Y4105D01*
X6975Y3896D01*
X7055Y3703D01*
X7202Y3555D01*
X7395Y3475D01*
X7604Y3475D01*
X7797Y3555D01*
X7945Y3702D01*
X8025Y3895D01*
X8025Y1049D01*
X7891Y1049D01*
X7689Y965D01*
X7535Y811D01*
X7500Y727D01*
X7465Y811D01*
X7311Y965D01*
X7109Y1049D01*
X6945Y1049D01*
X6553Y1441D01*
X6553Y6919D01*
X6542Y7137D01*
X6480Y7286D01*
X6385Y7315D01*
X6315Y7245D01*
X6315Y7385D01*
X6286Y7480D01*
X6081Y7553D01*
X5863Y7542D01*
X5714Y7480D01*
X5685Y7385D01*
X6000Y7071D01*
X6315Y7385D01*
X6315Y7245D01*
X6071Y7000D01*
X6385Y6685D01*
X6480Y6714D01*
X6553Y6919D01*
X6553Y1441D01*
X6549Y1445D01*
X6549Y2891D01*
X6549Y3109D01*
X6465Y3311D01*
X6315Y3461D01*
X6315Y6615D01*
X6000Y6929D01*
X5929Y6859D01*
X5929Y7000D01*
X5615Y7315D01*
X5520Y7286D01*
X5447Y7081D01*
X5458Y6863D01*
X5520Y6714D01*
X5615Y6685D01*
X5929Y7000D01*
X5929Y6859D01*
X5685Y6615D01*
X5714Y6520D01*
X5919Y6447D01*
X6137Y6458D01*
X6286Y6520D01*
X6315Y6615D01*
X6315Y3461D01*
X6311Y3465D01*
X6109Y3549D01*
X5891Y3549D01*
X5689Y3465D01*
X5535Y3311D01*
X5451Y3109D01*
X5451Y2891D01*
X5535Y2689D01*
X5689Y2535D01*
X5891Y2451D01*
X6109Y2451D01*
X6311Y2535D01*
X6465Y2689D01*
X6549Y2891D01*
X6549Y1445D01*
X6247Y1747D01*
X6134Y1823D01*
X6000Y1850D01*
X5053Y1850D01*
X5053Y2919D01*
X5049Y2999D01*
X5049Y6891D01*
X5049Y7109D01*
X4965Y7311D01*
X4811Y7465D01*
X4609Y7549D01*
X4391Y7549D01*
X4315Y7518D01*
X4315Y9115D01*
X4000Y9429D01*
X3685Y9115D01*
X3714Y9020D01*
X3919Y8947D01*
X4137Y8958D01*
X4286Y9020D01*
X4315Y9115D01*
X4315Y7518D01*
X4189Y7465D01*
X4035Y7311D01*
X3951Y7109D01*
X3951Y6891D01*
X4035Y6689D01*
X4189Y6535D01*
X4391Y6451D01*
X4609Y6451D01*
X4811Y6535D01*
X4965Y6689D01*
X5049Y6891D01*
X5049Y2999D01*
X5042Y3137D01*
X4980Y3286D01*
X4885Y3315D01*
X4815Y3245D01*
X4815Y3385D01*
X4786Y3480D01*
X4581Y3553D01*
X4363Y3542D01*
X4214Y3480D01*
X4185Y3385D01*
X4500Y3071D01*
X4815Y3385D01*
X4815Y3245D01*
X4571Y3000D01*
X4885Y2685D01*
X4980Y2714D01*
X5053Y2919D01*
X5053Y1850D01*
X5000Y1850D01*
X4866Y1823D01*
X4815Y1789D01*
X4815Y2615D01*
X4500Y2929D01*
X4429Y2859D01*
X4429Y3000D01*
X4115Y3315D01*
X4020Y3286D01*
X3947Y3081D01*
X3958Y2863D01*
X4020Y2714D01*
X4115Y2685D01*
X4429Y3000D01*
X4429Y2859D01*
X4185Y2615D01*
X4214Y2520D01*
X4419Y2447D01*
X4637Y2458D01*
X4786Y2520D01*
X4815Y2615D01*
X4815Y1789D01*
X4752Y1747D01*
X4253Y1247D01*
X4177Y1134D01*
X4150Y1000D01*
X4150Y926D01*
X4035Y811D01*
X4002Y733D01*
X3980Y786D01*
X3885Y815D01*
X3815Y745D01*
X3815Y885D01*
X3786Y980D01*
X3581Y1053D01*
X3363Y1042D01*
X3214Y980D01*
X3185Y885D01*
X3500Y571D01*
X3815Y885D01*
X3815Y745D01*
X3571Y500D01*
X3885Y185D01*
X3980Y214D01*
X4000Y272D01*
X4035Y189D01*
X4174Y50D01*
X3795Y50D01*
X3815Y115D01*
X3500Y429D01*
X3185Y115D01*
X3204Y50D01*
X3002Y50D01*
X3011Y59D01*
X3049Y150D01*
X3049Y206D01*
X3115Y185D01*
X3429Y500D01*
X3115Y815D01*
X3049Y795D01*
X3049Y849D01*
X3011Y941D01*
X2941Y1011D01*
X2850Y1049D01*
X2751Y1049D01*
X2151Y1049D01*
X2059Y1011D01*
X1989Y941D01*
X1951Y850D01*
X1222Y850D01*
X1115Y957D01*
X1009Y1002D01*
X1116Y1045D01*
X1147Y1077D01*
X1189Y1035D01*
X1391Y951D01*
X1609Y951D01*
X1811Y1035D01*
X1965Y1189D01*
X2049Y1391D01*
X2049Y1609D01*
X1965Y1811D01*
X1825Y1951D01*
X1849Y1951D01*
X1941Y1989D01*
X2011Y2059D01*
X2049Y2150D01*
X2049Y2249D01*
X2049Y2849D01*
X2011Y2941D01*
X1941Y3011D01*
X1850Y3049D01*
X1751Y3049D01*
X1151Y3049D01*
X1059Y3011D01*
X1037Y2990D01*
X1009Y3002D01*
X1116Y3045D01*
X1267Y3196D01*
X1349Y3393D01*
X1349Y3606D01*
X1268Y3803D01*
X1117Y3954D01*
X1006Y4000D01*
X1116Y4045D01*
X1267Y4196D01*
X1349Y4393D01*
X1349Y4606D01*
X1268Y4803D01*
X1117Y4954D01*
X1006Y5000D01*
X1035Y5013D01*
X1059Y4989D01*
X1150Y4951D01*
X1249Y4951D01*
X1849Y4951D01*
X1941Y4989D01*
X2011Y5059D01*
X2049Y5150D01*
X2049Y5249D01*
X2049Y5849D01*
X2011Y5941D01*
X1941Y6011D01*
X1850Y6049D01*
X1751Y6049D01*
X1151Y6049D01*
X1059Y6011D01*
X1035Y5988D01*
X1006Y6000D01*
X1116Y6045D01*
X1267Y6196D01*
X1349Y6393D01*
X1349Y6606D01*
X1268Y6803D01*
X1117Y6954D01*
X1006Y7000D01*
X1116Y7045D01*
X1147Y7077D01*
X1189Y7035D01*
X1391Y6951D01*
X1609Y6951D01*
X1811Y7035D01*
X1965Y7189D01*
X2049Y7391D01*
X2049Y7609D01*
X1965Y7811D01*
X1825Y7951D01*
X1849Y7951D01*
X1941Y7989D01*
X2011Y8059D01*
X2049Y8150D01*
X2049Y8249D01*
X2049Y8849D01*
X2011Y8941D01*
X1941Y9011D01*
X1850Y9049D01*
X1751Y9049D01*
X1151Y9049D01*
X1059Y9011D01*
X1035Y8988D01*
X1004Y9001D01*
X1052Y9015D01*
X1218Y9150D01*
X1320Y9338D01*
X1325Y9366D01*
X1278Y9450D01*
X600Y9450D01*
X550Y9450D01*
X450Y9450D01*
X450Y9550D01*
X550Y9550D01*
X600Y9550D01*
X1278Y9550D01*
X1325Y9634D01*
X1320Y9662D01*
X1218Y9850D01*
X1095Y9950D01*
X2498Y9950D01*
X2489Y9941D01*
X2451Y9850D01*
X2451Y9751D01*
X2451Y9151D01*
X2489Y9059D01*
X2559Y8989D01*
X2650Y8951D01*
X2749Y8951D01*
X3349Y8951D01*
X3441Y8989D01*
X3511Y9059D01*
X3549Y9150D01*
X3549Y9206D01*
X3615Y9185D01*
X3929Y9500D01*
X3615Y9815D01*
X3549Y9795D01*
X3549Y9849D01*
X3511Y9941D01*
X3502Y9950D01*
X3704Y9950D01*
X3685Y9885D01*
X4000Y9571D01*
X4315Y9885D01*
X4295Y9950D01*
X4674Y9950D01*
X4535Y9811D01*
X4502Y9733D01*
X4480Y9786D01*
X4385Y9815D01*
X4071Y9500D01*
X4385Y9185D01*
X4480Y9214D01*
X4500Y9272D01*
X4535Y9189D01*
X4689Y9035D01*
X4891Y8951D01*
X5109Y8951D01*
X5311Y9035D01*
X5465Y9189D01*
X5549Y9391D01*
X5549Y9609D01*
X5465Y9811D01*
X5326Y9950D01*
X13998Y9950D01*
X13989Y9941D01*
X13951Y9850D01*
X13951Y9751D01*
X13950Y9612D01*
X14012Y9550D01*
X14400Y9550D01*
X14450Y9550D01*
X14550Y9550D01*
X14550Y9450D01*
X14550Y9400D01*
X14550Y9012D01*
X14612Y8950D01*
X14849Y8951D01*
X14941Y8989D01*
X15011Y9059D01*
X15049Y9150D01*
X15049Y9175D01*
X15150Y9074D01*
X15150Y5500D01*
X15177Y5366D01*
X15253Y5253D01*
X17252Y3253D01*
X17253Y3253D01*
X17366Y3177D01*
X17500Y3150D01*
X17779Y3150D01*
X17883Y3046D01*
X17993Y3001D01*
X17993Y3001D01*
G37*
G54D19*
X17993Y3001D02*
X17884Y2955D01*
X17733Y2804D01*
X17651Y2607D01*
X17651Y2394D01*
X17686Y2309D01*
X14450Y5545D01*
X14450Y9012D01*
X14450Y9450D01*
X14012Y9450D01*
X13950Y9388D01*
X13951Y9249D01*
X13951Y9150D01*
X13989Y9059D01*
X14059Y8989D01*
X14151Y8951D01*
X14388Y8950D01*
X14450Y9012D01*
X14450Y5545D01*
X14247Y5747D01*
X14134Y5823D01*
X14000Y5850D01*
X13053Y5850D01*
X13053Y6419D01*
X13049Y6499D01*
X13049Y8391D01*
X13049Y8609D01*
X12965Y8811D01*
X12811Y8965D01*
X12609Y9049D01*
X12391Y9049D01*
X12189Y8965D01*
X12035Y8811D01*
X11951Y8609D01*
X11951Y8391D01*
X12035Y8189D01*
X12189Y8035D01*
X12391Y7951D01*
X12609Y7951D01*
X12811Y8035D01*
X12965Y8189D01*
X13049Y8391D01*
X13049Y6499D01*
X13042Y6637D01*
X12980Y6786D01*
X12885Y6815D01*
X12815Y6745D01*
X12815Y6885D01*
X12786Y6980D01*
X12581Y7053D01*
X12363Y7042D01*
X12214Y6980D01*
X12185Y6885D01*
X12500Y6571D01*
X12815Y6885D01*
X12815Y6745D01*
X12571Y6500D01*
X12885Y6185D01*
X12980Y6214D01*
X13053Y6419D01*
X13053Y5850D01*
X12815Y5850D01*
X12815Y6115D01*
X12500Y6429D01*
X12429Y6359D01*
X12429Y6500D01*
X12115Y6815D01*
X12020Y6786D01*
X11947Y6581D01*
X11958Y6363D01*
X12020Y6214D01*
X12115Y6185D01*
X12429Y6500D01*
X12429Y6359D01*
X12185Y6115D01*
X12214Y6020D01*
X12419Y5947D01*
X12637Y5958D01*
X12786Y6020D01*
X12815Y6115D01*
X12815Y5850D01*
X12000Y5850D01*
X11866Y5823D01*
X11752Y5747D01*
X10855Y4850D01*
X10553Y4850D01*
X10553Y6419D01*
X10549Y6499D01*
X10549Y8391D01*
X10549Y8609D01*
X10465Y8811D01*
X10311Y8965D01*
X10109Y9049D01*
X9891Y9049D01*
X9689Y8965D01*
X9535Y8811D01*
X9451Y8609D01*
X9451Y8391D01*
X9535Y8189D01*
X9689Y8035D01*
X9891Y7951D01*
X10109Y7951D01*
X10311Y8035D01*
X10465Y8189D01*
X10549Y8391D01*
X10549Y6499D01*
X10542Y6637D01*
X10480Y6786D01*
X10385Y6815D01*
X10315Y6745D01*
X10315Y6885D01*
X10286Y6980D01*
X10081Y7053D01*
X9863Y7042D01*
X9714Y6980D01*
X9685Y6885D01*
X10000Y6571D01*
X10315Y6885D01*
X10315Y6745D01*
X10071Y6500D01*
X10385Y6185D01*
X10480Y6214D01*
X10553Y6419D01*
X10553Y4850D01*
X10426Y4850D01*
X10315Y4961D01*
X10315Y6115D01*
X10000Y6429D01*
X9929Y6359D01*
X9929Y6500D01*
X9615Y6815D01*
X9520Y6786D01*
X9447Y6581D01*
X9458Y6363D01*
X9520Y6214D01*
X9615Y6185D01*
X9929Y6500D01*
X9929Y6359D01*
X9685Y6115D01*
X9714Y6020D01*
X9919Y5947D01*
X10137Y5958D01*
X10286Y6020D01*
X10315Y6115D01*
X10315Y4961D01*
X10311Y4965D01*
X10109Y5049D01*
X9891Y5049D01*
X9689Y4965D01*
X9535Y4811D01*
X9451Y4609D01*
X9451Y4391D01*
X9535Y4189D01*
X9689Y4035D01*
X9891Y3951D01*
X10109Y3951D01*
X10311Y4035D01*
X10426Y4150D01*
X11000Y4150D01*
X11000Y4151D01*
X11134Y4177D01*
X11247Y4253D01*
X12144Y5150D01*
X13855Y5150D01*
X17678Y1327D01*
X17686Y1309D01*
X14247Y4747D01*
X14134Y4823D01*
X14000Y4850D01*
X12926Y4850D01*
X12811Y4965D01*
X12609Y5049D01*
X12391Y5049D01*
X12189Y4965D01*
X12035Y4811D01*
X11951Y4609D01*
X11951Y4391D01*
X12035Y4189D01*
X12189Y4035D01*
X12391Y3951D01*
X12609Y3951D01*
X12811Y4035D01*
X12926Y4150D01*
X13855Y4150D01*
X14580Y3425D01*
X14416Y3425D01*
X14260Y3361D01*
X14140Y3241D01*
X14075Y3085D01*
X14075Y2916D01*
X14139Y2760D01*
X14259Y2640D01*
X14415Y2575D01*
X14430Y2575D01*
X16114Y891D01*
X16035Y811D01*
X16002Y733D01*
X15980Y786D01*
X15885Y815D01*
X15815Y745D01*
X15815Y885D01*
X15786Y980D01*
X15581Y1053D01*
X15363Y1042D01*
X15214Y980D01*
X15185Y885D01*
X15500Y571D01*
X15815Y885D01*
X15815Y745D01*
X15571Y500D01*
X15885Y185D01*
X15980Y214D01*
X16000Y272D01*
X16035Y189D01*
X16174Y50D01*
X15795Y50D01*
X15815Y115D01*
X15500Y429D01*
X15185Y115D01*
X15204Y50D01*
X15002Y50D01*
X15011Y59D01*
X15049Y150D01*
X15049Y206D01*
X15115Y185D01*
X15429Y500D01*
X15115Y815D01*
X15049Y795D01*
X15049Y849D01*
X15011Y941D01*
X14941Y1011D01*
X14850Y1049D01*
X14751Y1049D01*
X14151Y1049D01*
X14059Y1011D01*
X13989Y941D01*
X13951Y850D01*
X13951Y751D01*
X13951Y151D01*
X13989Y59D01*
X13998Y50D01*
X13326Y50D01*
X13465Y189D01*
X13549Y391D01*
X13549Y609D01*
X13465Y811D01*
X13311Y965D01*
X13109Y1049D01*
X13049Y1049D01*
X13049Y2391D01*
X13049Y2609D01*
X12965Y2811D01*
X12811Y2965D01*
X12609Y3049D01*
X12391Y3049D01*
X12189Y2965D01*
X12035Y2811D01*
X11951Y2609D01*
X11951Y2391D01*
X12035Y2189D01*
X12189Y2035D01*
X12391Y1951D01*
X12609Y1951D01*
X12811Y2035D01*
X12965Y2189D01*
X13049Y2391D01*
X13049Y1049D01*
X12891Y1049D01*
X12689Y965D01*
X12549Y825D01*
X12549Y849D01*
X12511Y941D01*
X12441Y1011D01*
X12350Y1049D01*
X12251Y1049D01*
X11651Y1049D01*
X11559Y1011D01*
X11489Y941D01*
X11451Y850D01*
X11451Y751D01*
X11451Y151D01*
X11489Y59D01*
X11498Y50D01*
X10826Y50D01*
X10965Y189D01*
X11049Y391D01*
X11049Y609D01*
X10965Y811D01*
X10811Y965D01*
X10609Y1049D01*
X10549Y1049D01*
X10549Y2391D01*
X10549Y2609D01*
X10465Y2811D01*
X10311Y2965D01*
X10109Y3049D01*
X9891Y3049D01*
X9689Y2965D01*
X9535Y2811D01*
X9451Y2609D01*
X9451Y2391D01*
X9535Y2189D01*
X9689Y2035D01*
X9891Y1951D01*
X10109Y1951D01*
X10311Y2035D01*
X10465Y2189D01*
X10549Y2391D01*
X10549Y1049D01*
X10391Y1049D01*
X10189Y965D01*
X10049Y825D01*
X10049Y849D01*
X10011Y941D01*
X9941Y1011D01*
X9850Y1049D01*
X9751Y1049D01*
X9151Y1049D01*
X9059Y1011D01*
X8989Y941D01*
X8951Y850D01*
X8951Y751D01*
X8951Y151D01*
X8989Y59D01*
X8998Y50D01*
X8326Y50D01*
X8465Y189D01*
X8549Y391D01*
X8549Y609D01*
X8465Y811D01*
X8311Y965D01*
X8109Y1049D01*
X8080Y1049D01*
X8080Y8684D01*
X8080Y8915D01*
X7992Y9128D01*
X7829Y9291D01*
X7616Y9380D01*
X7385Y9380D01*
X7172Y9292D01*
X7009Y9129D01*
X7000Y9109D01*
X6992Y9128D01*
X6829Y9291D01*
X6616Y9380D01*
X6385Y9380D01*
X6172Y9292D01*
X6009Y9129D01*
X5920Y8916D01*
X5920Y8685D01*
X6008Y8472D01*
X6171Y8309D01*
X6384Y8220D01*
X6615Y8220D01*
X6828Y8308D01*
X6991Y8471D01*
X6999Y8492D01*
X7008Y8472D01*
X7171Y8309D01*
X7384Y8220D01*
X7615Y8220D01*
X7828Y8308D01*
X7991Y8471D01*
X8080Y8684D01*
X8080Y1049D01*
X8025Y1049D01*
X8025Y3895D01*
X8025Y4104D01*
X8025Y5895D01*
X8025Y6104D01*
X7945Y6297D01*
X7798Y6445D01*
X7605Y6525D01*
X7396Y6525D01*
X7203Y6445D01*
X7055Y6298D01*
X6975Y6105D01*
X6975Y5896D01*
X7055Y5703D01*
X7202Y5555D01*
X7395Y5475D01*
X7604Y5475D01*
X7797Y5555D01*
X7945Y5702D01*
X8025Y5895D01*
X8025Y4104D01*
X7945Y4297D01*
X7798Y4445D01*
X7605Y4525D01*
X7396Y4525D01*
X7203Y4445D01*
X7055Y4298D01*
X6975Y4105D01*
X6975Y3896D01*
X7055Y3703D01*
X7202Y3555D01*
X7395Y3475D01*
X7604Y3475D01*
X7797Y3555D01*
X7945Y3702D01*
X8025Y3895D01*
X8025Y1049D01*
X7891Y1049D01*
X7689Y965D01*
X7535Y811D01*
X7500Y727D01*
X7465Y811D01*
X7311Y965D01*
X7109Y1049D01*
X6945Y1049D01*
X6553Y1441D01*
X6553Y6919D01*
X6542Y7137D01*
X6480Y7286D01*
X6385Y7315D01*
X6315Y7245D01*
X6315Y7385D01*
X6286Y7480D01*
X6081Y7553D01*
X5863Y7542D01*
X5714Y7480D01*
X5685Y7385D01*
X6000Y7071D01*
X6315Y7385D01*
X6315Y7245D01*
X6071Y7000D01*
X6385Y6685D01*
X6480Y6714D01*
X6553Y6919D01*
X6553Y1441D01*
X6549Y1445D01*
X6549Y2891D01*
X6549Y3109D01*
X6465Y3311D01*
X6315Y3461D01*
X6315Y6615D01*
X6000Y6929D01*
X5929Y6859D01*
X5929Y7000D01*
X5615Y7315D01*
X5520Y7286D01*
X5447Y7081D01*
X5458Y6863D01*
X5520Y6714D01*
X5615Y6685D01*
X5929Y7000D01*
X5929Y6859D01*
X5685Y6615D01*
X5714Y6520D01*
X5919Y6447D01*
X6137Y6458D01*
X6286Y6520D01*
X6315Y6615D01*
X6315Y3461D01*
X6311Y3465D01*
X6109Y3549D01*
X5891Y3549D01*
X5689Y3465D01*
X5535Y3311D01*
X5451Y3109D01*
X5451Y2891D01*
X5535Y2689D01*
X5689Y2535D01*
X5891Y2451D01*
X6109Y2451D01*
X6311Y2535D01*
X6465Y2689D01*
X6549Y2891D01*
X6549Y1445D01*
X6247Y1747D01*
X6134Y1823D01*
X6000Y1850D01*
X5053Y1850D01*
X5053Y2919D01*
X5049Y2999D01*
X5049Y6891D01*
X5049Y7109D01*
X4965Y7311D01*
X4811Y7465D01*
X4609Y7549D01*
X4391Y7549D01*
X4315Y7518D01*
X4315Y9115D01*
X4000Y9429D01*
X3685Y9115D01*
X3714Y9020D01*
X3919Y8947D01*
X4137Y8958D01*
X4286Y9020D01*
X4315Y9115D01*
X4315Y7518D01*
X4189Y7465D01*
X4035Y7311D01*
X3951Y7109D01*
X3951Y6891D01*
X4035Y6689D01*
X4189Y6535D01*
X4391Y6451D01*
X4609Y6451D01*
X4811Y6535D01*
X4965Y6689D01*
X5049Y6891D01*
X5049Y2999D01*
X5042Y3137D01*
X4980Y3286D01*
X4885Y3315D01*
X4815Y3245D01*
X4815Y3385D01*
X4786Y3480D01*
X4581Y3553D01*
X4363Y3542D01*
X4214Y3480D01*
X4185Y3385D01*
X4500Y3071D01*
X4815Y3385D01*
X4815Y3245D01*
X4571Y3000D01*
X4885Y2685D01*
X4980Y2714D01*
X5053Y2919D01*
X5053Y1850D01*
X5000Y1850D01*
X4866Y1823D01*
X4815Y1789D01*
X4815Y2615D01*
X4500Y2929D01*
X4429Y2859D01*
X4429Y3000D01*
X4115Y3315D01*
X4020Y3286D01*
X3947Y3081D01*
X3958Y2863D01*
X4020Y2714D01*
X4115Y2685D01*
X4429Y3000D01*
X4429Y2859D01*
X4185Y2615D01*
X4214Y2520D01*
X4419Y2447D01*
X4637Y2458D01*
X4786Y2520D01*
X4815Y2615D01*
X4815Y1789D01*
X4752Y1747D01*
X4253Y1247D01*
X4177Y1134D01*
X4150Y1000D01*
X4150Y926D01*
X4035Y811D01*
X4002Y733D01*
X3980Y786D01*
X3885Y815D01*
X3815Y745D01*
X3815Y885D01*
X3786Y980D01*
X3581Y1053D01*
X3363Y1042D01*
X3214Y980D01*
X3185Y885D01*
X3500Y571D01*
X3815Y885D01*
X3815Y745D01*
X3571Y500D01*
X3885Y185D01*
X3980Y214D01*
X4000Y272D01*
X4035Y189D01*
X4174Y50D01*
X3795Y50D01*
X3815Y115D01*
X3500Y429D01*
X3185Y115D01*
X3204Y50D01*
X3002Y50D01*
X3011Y59D01*
X3049Y150D01*
X3049Y206D01*
X3115Y185D01*
X3429Y500D01*
X3115Y815D01*
X3049Y795D01*
X3049Y849D01*
X3011Y941D01*
X2941Y1011D01*
X2850Y1049D01*
X2751Y1049D01*
X2151Y1049D01*
X2059Y1011D01*
X1989Y941D01*
X1951Y850D01*
X1222Y850D01*
X1115Y957D01*
X1009Y1002D01*
X1116Y1045D01*
X1147Y1077D01*
X1189Y1035D01*
X1391Y951D01*
X1609Y951D01*
X1811Y1035D01*
X1965Y1189D01*
X2049Y1391D01*
X2049Y1609D01*
X1965Y1811D01*
X1825Y1951D01*
X1849Y1951D01*
X1941Y1989D01*
X2011Y2059D01*
X2049Y2150D01*
X2049Y2249D01*
X2049Y2849D01*
X2011Y2941D01*
X1941Y3011D01*
X1850Y3049D01*
X1751Y3049D01*
X1151Y3049D01*
X1059Y3011D01*
X1037Y2990D01*
X1009Y3002D01*
X1116Y3045D01*
X1267Y3196D01*
X1349Y3393D01*
X1349Y3606D01*
X1268Y3803D01*
X1117Y3954D01*
X1006Y4000D01*
X1116Y4045D01*
X1267Y4196D01*
X1349Y4393D01*
X1349Y4606D01*
X1268Y4803D01*
X1117Y4954D01*
X1006Y5000D01*
X1035Y5013D01*
X1059Y4989D01*
X1150Y4951D01*
X1249Y4951D01*
X1849Y4951D01*
X1941Y4989D01*
X2011Y5059D01*
X2049Y5150D01*
X2049Y5249D01*
X2049Y5849D01*
X2011Y5941D01*
X1941Y6011D01*
X1850Y6049D01*
X1751Y6049D01*
X1151Y6049D01*
X1059Y6011D01*
X1035Y5988D01*
X1006Y6000D01*
X1116Y6045D01*
X1267Y6196D01*
X1349Y6393D01*
X1349Y6606D01*
X1268Y6803D01*
X1117Y6954D01*
X1006Y7000D01*
X1116Y7045D01*
X1147Y7077D01*
X1189Y7035D01*
X1391Y6951D01*
X1609Y6951D01*
X1811Y7035D01*
X1965Y7189D01*
X2049Y7391D01*
X2049Y7609D01*
X1965Y7811D01*
X1825Y7951D01*
X1849Y7951D01*
X1941Y7989D01*
X2011Y8059D01*
X2049Y8150D01*
X2049Y8249D01*
X2049Y8849D01*
X2011Y8941D01*
X1941Y9011D01*
X1850Y9049D01*
X1751Y9049D01*
X1151Y9049D01*
X1059Y9011D01*
X1035Y8988D01*
X1004Y9001D01*
X1052Y9015D01*
X1218Y9150D01*
X1320Y9338D01*
X1325Y9366D01*
X1278Y9450D01*
X600Y9450D01*
X550Y9450D01*
X450Y9450D01*
X450Y9550D01*
X550Y9550D01*
X600Y9550D01*
X1278Y9550D01*
X1325Y9634D01*
X1320Y9662D01*
X1218Y9850D01*
X1095Y9950D01*
X2498Y9950D01*
X2489Y9941D01*
X2451Y9850D01*
X2451Y9751D01*
X2451Y9151D01*
X2489Y9059D01*
X2559Y8989D01*
X2650Y8951D01*
X2749Y8951D01*
X3349Y8951D01*
X3441Y8989D01*
X3511Y9059D01*
X3549Y9150D01*
X3549Y9206D01*
X3615Y9185D01*
X3929Y9500D01*
X3615Y9815D01*
X3549Y9795D01*
X3549Y9849D01*
X3511Y9941D01*
X3502Y9950D01*
X3704Y9950D01*
X3685Y9885D01*
X4000Y9571D01*
X4315Y9885D01*
X4295Y9950D01*
X4674Y9950D01*
X4535Y9811D01*
X4502Y9733D01*
X4480Y9786D01*
X4385Y9815D01*
X4071Y9500D01*
X4385Y9185D01*
X4480Y9214D01*
X4500Y9272D01*
X4535Y9189D01*
X4689Y9035D01*
X4891Y8951D01*
X5109Y8951D01*
X5311Y9035D01*
X5465Y9189D01*
X5549Y9391D01*
X5549Y9609D01*
X5465Y9811D01*
X5326Y9950D01*
X13998Y9950D01*
X13989Y9941D01*
X13951Y9850D01*
X13951Y9751D01*
X13950Y9612D01*
X14012Y9550D01*
X14400Y9550D01*
X14450Y9550D01*
X14550Y9550D01*
X14550Y9450D01*
X14550Y9400D01*
X14550Y9012D01*
X14612Y8950D01*
X14849Y8951D01*
X14941Y8989D01*
X15011Y9059D01*
X15049Y9150D01*
X15049Y9175D01*
X15150Y9074D01*
X15150Y5500D01*
X15177Y5366D01*
X15253Y5253D01*
X17252Y3253D01*
X17253Y3253D01*
X17366Y3177D01*
X17500Y3150D01*
X17779Y3150D01*
X17883Y3046D01*
X17993Y3001D01*
M02*
